<svg width="38" height="13" viewBox="0 0 38 13" fill="none" xmlns="http://www.w3.org/2000/svg">
<path d="M1 6.6286L0.664843 6.99964C0.558538 6.90361 0.498526 6.76661 0.500027 6.62336C0.501528 6.48012 0.564398 6.3444 0.672692 6.25062L1 6.6286ZM7.83516 12.129C8.04008 12.3141 8.05614 12.6302 7.87104 12.8352C7.68594 13.0401 7.36976 13.0561 7.16484 12.871L7.83516 12.129ZM7.17269 0.622019C7.38144 0.441252 7.69721 0.463939 7.87798 0.672692C8.05875 0.881445 8.03606 1.19721 7.82731 1.37798L7.17269 0.622019ZM1.33516 6.25756L7.83516 12.129L7.16484 12.871L0.664843 6.99964L1.33516 6.25756ZM0.672692 6.25062L7.17269 0.622019L7.82731 1.37798L1.32731 7.00658L0.672692 6.25062ZM1 6.1286C1.02784 6.1286 1.05566 6.1286 1.08345 6.1286C1.11124 6.1286 1.13901 6.1286 1.16675 6.1286C1.1945 6.1286 1.22222 6.1286 1.24992 6.1286C1.27762 6.1286 1.30529 6.1286 1.33294 6.1286C1.36059 6.1286 1.38822 6.1286 1.41582 6.1286C1.44343 6.1286 1.47101 6.1286 1.49856 6.1286C1.52612 6.1286 1.55365 6.1286 1.58116 6.1286C1.60867 6.1286 1.63616 6.1286 1.66362 6.1286C1.69109 6.1286 1.71853 6.1286 1.74595 6.1286C1.77336 6.1286 1.80076 6.1286 1.82813 6.1286C1.8555 6.1286 1.88285 6.1286 1.91018 6.1286C1.9375 6.1286 1.9648 6.1286 1.99209 6.1286C2.01937 6.1286 2.04662 6.1286 2.07386 6.1286C2.10109 6.1286 2.1283 6.1286 2.15549 6.1286C2.18268 6.1286 2.20985 6.1286 2.23699 6.1286C2.26414 6.1286 2.29126 6.1286 2.31836 6.1286C2.34546 6.1286 2.37254 6.1286 2.39959 6.1286C2.42665 6.1286 2.45368 6.1286 2.48069 6.1286C2.5077 6.1286 2.53469 6.1286 2.56165 6.1286C2.58862 6.1286 2.61556 6.1286 2.64249 6.1286C2.66941 6.1286 2.69631 6.1286 2.72319 6.1286C2.75006 6.1286 2.77692 6.1286 2.80375 6.1286C2.83059 6.1286 2.8574 6.1286 2.88419 6.1286C2.91098 6.1286 2.93775 6.1286 2.9645 6.1286C2.99124 6.1286 3.01797 6.1286 3.04467 6.1286C3.07138 6.1286 3.09806 6.1286 3.12472 6.1286C3.15138 6.1286 3.17802 6.1286 3.20464 6.1286C3.23126 6.1286 3.25785 6.1286 3.28443 6.1286C3.31101 6.1286 3.33756 6.1286 3.36409 6.1286C3.39063 6.1286 3.41714 6.1286 3.44363 6.1286C3.47012 6.1286 3.49659 6.1286 3.52304 6.1286C3.54949 6.1286 3.57591 6.1286 3.60232 6.1286C3.62873 6.1286 3.65511 6.1286 3.68148 6.1286C3.70784 6.1286 3.73419 6.1286 3.76051 6.1286C3.78683 6.1286 3.81314 6.1286 3.83942 6.1286C3.8657 6.1286 3.89196 6.1286 3.9182 6.1286C3.94445 6.1286 3.97067 6.1286 3.99687 6.1286C4.02307 6.1286 4.04925 6.1286 4.07541 6.1286C4.10156 6.1286 4.1277 6.1286 4.15382 6.1286C4.17994 6.1286 4.20604 6.1286 4.23212 6.1286C4.2582 6.1286 4.28425 6.1286 4.31029 6.1286C4.33633 6.1286 4.36235 6.1286 4.38835 6.1286C4.41434 6.1286 4.44032 6.1286 4.46628 6.1286C4.49224 6.1286 4.51818 6.1286 4.5441 6.1286C4.57001 6.1286 4.59591 6.1286 4.62179 6.1286C4.64767 6.1286 4.67353 6.1286 4.69937 6.1286C4.72521 6.1286 4.75103 6.1286 4.77683 6.1286C4.80263 6.1286 4.82841 6.1286 4.85417 6.1286C4.87994 6.1286 4.90568 6.1286 4.9314 6.1286C4.95712 6.1286 4.98283 6.1286 5.00851 6.1286C5.0342 6.1286 5.05986 6.1286 5.08551 6.1286C5.11115 6.1286 5.13678 6.1286 5.16239 6.1286C5.188 6.1286 5.21359 6.1286 5.23916 6.1286C5.26473 6.1286 5.29028 6.1286 5.31581 6.1286C5.34134 6.1286 5.36686 6.1286 5.39235 6.1286C5.41784 6.1286 5.44332 6.1286 5.46878 6.1286C5.49423 6.1286 5.51967 6.1286 5.54509 6.1286C5.57051 6.1286 5.59591 6.1286 5.6213 6.1286C5.64668 6.1286 5.67204 6.1286 5.69739 6.1286C5.72274 6.1286 5.74806 6.1286 5.77337 6.1286C5.79868 6.1286 5.82397 6.1286 5.84925 6.1286C5.87452 6.1286 5.89977 6.1286 5.92501 6.1286C5.95025 6.1286 5.97547 6.1286 6.00067 6.1286C6.02587 6.1286 6.05105 6.1286 6.07621 6.1286C6.10138 6.1286 6.12652 6.1286 6.15165 6.1286C6.17678 6.1286 6.20189 6.1286 6.22699 6.1286C6.25208 6.1286 6.27715 6.1286 6.30221 6.1286C6.32727 6.1286 6.35231 6.1286 6.37733 6.1286C6.40236 6.1286 6.42736 6.1286 6.45235 6.1286C6.47734 6.1286 6.50231 6.1286 6.52726 6.1286C6.55221 6.1286 6.57715 6.1286 6.60207 6.1286C6.62698 6.1286 6.65189 6.1286 6.67677 6.1286C6.70165 6.1286 6.72652 6.1286 6.75137 6.1286C6.77622 6.1286 6.80105 6.1286 6.82587 6.1286C6.85068 6.1286 6.87548 6.1286 6.90026 6.1286C6.92504 6.1286 6.94981 6.1286 6.97456 6.1286C6.99931 6.1286 7.02404 6.1286 7.04875 6.1286C7.07347 6.1286 7.09816 6.1286 7.12284 6.1286C7.14753 6.1286 7.17219 6.1286 7.19684 6.1286C7.22149 6.1286 7.24612 6.1286 7.27073 6.1286C7.29535 6.1286 7.31995 6.1286 7.34453 6.1286C7.36911 6.1286 7.39368 6.1286 7.41823 6.1286C7.44278 6.1286 7.46731 6.1286 7.49183 6.1286C7.51634 6.1286 7.54085 6.1286 7.56533 6.1286C7.58982 6.1286 7.61428 6.1286 7.63874 6.1286C7.66319 6.1286 7.68763 6.1286 7.71205 6.1286C7.73647 6.1286 7.76088 6.1286 7.78527 6.1286C7.80966 6.1286 7.83403 6.1286 7.85839 6.1286C7.88275 6.1286 7.90709 6.1286 7.93142 6.1286C7.95574 6.1286 7.98005 6.1286 8.00435 6.1286C8.02865 6.1286 8.05293 6.1286 8.07719 6.1286C8.10146 6.1286 8.12571 6.1286 8.14994 6.1286C8.17418 6.1286 8.19839 6.1286 8.2226 6.1286C8.2468 6.1286 8.27099 6.1286 8.29516 6.1286C8.31934 6.1286 8.3435 6.1286 8.36764 6.1286C8.39178 6.1286 8.41591 6.1286 8.44002 6.1286C8.46414 6.1286 8.48824 6.1286 8.51232 6.1286C8.5364 6.1286 8.56047 6.1286 8.58453 6.1286C8.60858 6.1286 8.63262 6.1286 8.65664 6.1286C8.68067 6.1286 8.70468 6.1286 8.72867 6.1286C8.75267 6.1286 8.77665 6.1286 8.80062 6.1286C8.82458 6.1286 8.84854 6.1286 8.87247 6.1286C8.89641 6.1286 8.92033 6.1286 8.94424 6.1286C8.96815 6.1286 8.99205 6.1286 9.01593 6.1286C9.03981 6.1286 9.06367 6.1286 9.08753 6.1286C9.11138 6.1286 9.13522 6.1286 9.15904 6.1286C9.18286 6.1286 9.20667 6.1286 9.23047 6.1286C9.25427 6.1286 9.27805 6.1286 9.30182 6.1286C9.32559 6.1286 9.34934 6.1286 9.37308 6.1286C9.39682 6.1286 9.42055 6.1286 9.44426 6.1286C9.46798 6.1286 9.49168 6.1286 9.51536 6.1286C9.53905 6.1286 9.56272 6.1286 9.58638 6.1286C9.61004 6.1286 9.63369 6.1286 9.65732 6.1286C9.68095 6.1286 9.70457 6.1286 9.72818 6.1286C9.75179 6.1286 9.77538 6.1286 9.79896 6.1286C9.82254 6.1286 9.8461 6.1286 9.86966 6.1286C9.89321 6.1286 9.91675 6.1286 9.94028 6.1286C9.96381 6.1286 9.98732 6.1286 10.0108 6.1286C10.0343 6.1286 10.0578 6.1286 10.0813 6.1286C10.1048 6.1286 10.1282 6.1286 10.1517 6.1286C10.1751 6.1286 10.1986 6.1286 10.222 6.1286C10.2454 6.1286 10.2688 6.1286 10.2922 6.1286C10.3156 6.1286 10.339 6.1286 10.3624 6.1286C10.3858 6.1286 10.4091 6.1286 10.4325 6.1286C10.4558 6.1286 10.4792 6.1286 10.5025 6.1286C10.5258 6.1286 10.5491 6.1286 10.5724 6.1286C10.5957 6.1286 10.619 6.1286 10.6423 6.1286C10.6656 6.1286 10.6888 6.1286 10.7121 6.1286C10.7354 6.1286 10.7586 6.1286 10.7818 6.1286C10.8051 6.1286 10.8283 6.1286 10.8515 6.1286C10.8747 6.1286 10.8979 6.1286 10.9211 6.1286C10.9442 6.1286 10.9674 6.1286 10.9906 6.1286C11.0137 6.1286 11.0369 6.1286 11.06 6.1286C11.0832 6.1286 11.1063 6.1286 11.1294 6.1286C11.1525 6.1286 11.1756 6.1286 11.1987 6.1286C11.2218 6.1286 11.2449 6.1286 11.2679 6.1286C11.291 6.1286 11.3141 6.1286 11.3371 6.1286C11.3602 6.1286 11.3832 6.1286 11.4062 6.1286C11.4292 6.1286 11.4522 6.1286 11.4753 6.1286C11.4983 6.1286 11.5212 6.1286 11.5442 6.1286C11.5672 6.1286 11.5902 6.1286 11.6131 6.1286C11.6361 6.1286 11.659 6.1286 11.682 6.1286C11.7049 6.1286 11.7278 6.1286 11.7508 6.1286C11.7737 6.1286 11.7966 6.1286 11.8195 6.1286C11.8424 6.1286 11.8653 6.1286 11.8881 6.1286C11.911 6.1286 11.9339 6.1286 11.9567 6.1286C11.9796 6.1286 12.0024 6.1286 12.0252 6.1286C12.0481 6.1286 12.0709 6.1286 12.0937 6.1286C12.1165 6.1286 12.1393 6.1286 12.1621 6.1286C12.1849 6.1286 12.2077 6.1286 12.2305 6.1286C12.2532 6.1286 12.276 6.1286 12.2988 6.1286C12.3215 6.1286 12.3443 6.1286 12.367 6.1286C12.3897 6.1286 12.4125 6.1286 12.4352 6.1286C12.4579 6.1286 12.4806 6.1286 12.5033 6.1286C12.526 6.1286 12.5487 6.1286 12.5713 6.1286C12.594 6.1286 12.6167 6.1286 12.6393 6.1286C12.662 6.1286 12.6846 6.1286 12.7073 6.1286C12.7299 6.1286 12.7526 6.1286 12.7752 6.1286C12.7978 6.1286 12.8204 6.1286 12.843 6.1286C12.8656 6.1286 12.8882 6.1286 12.9108 6.1286C12.9334 6.1286 12.9559 6.1286 12.9785 6.1286C13.0011 6.1286 13.0236 6.1286 13.0462 6.1286C13.0687 6.1286 13.0913 6.1286 13.1138 6.1286C13.1363 6.1286 13.1589 6.1286 13.1814 6.1286C13.2039 6.1286 13.2264 6.1286 13.2489 6.1286C13.2714 6.1286 13.2939 6.1286 13.3164 6.1286C13.3388 6.1286 13.3613 6.1286 13.3838 6.1286C13.4062 6.1286 13.4287 6.1286 13.4511 6.1286C13.4736 6.1286 13.496 6.1286 13.5185 6.1286C13.5409 6.1286 13.5633 6.1286 13.5857 6.1286C13.6081 6.1286 13.6306 6.1286 13.653 6.1286C13.6753 6.1286 13.6977 6.1286 13.7201 6.1286C13.7425 6.1286 13.7649 6.1286 13.7872 6.1286C13.8096 6.1286 13.832 6.1286 13.8543 6.1286C13.8767 6.1286 13.899 6.1286 13.9214 6.1286C13.9437 6.1286 13.966 6.1286 13.9883 6.1286C14.0107 6.1286 14.033 6.1286 14.0553 6.1286C14.0776 6.1286 14.0999 6.1286 14.1222 6.1286C14.1445 6.1286 14.1668 6.1286 14.189 6.1286C14.2113 6.1286 14.2336 6.1286 14.2559 6.1286C14.2781 6.1286 14.3004 6.1286 14.3226 6.1286C14.3449 6.1286 14.3671 6.1286 14.3894 6.1286C14.4116 6.1286 14.4338 6.1286 14.456 6.1286C14.4783 6.1286 14.5005 6.1286 14.5227 6.1286C14.5449 6.1286 14.5671 6.1286 14.5893 6.1286C14.6115 6.1286 14.6337 6.1286 14.6559 6.1286C14.678 6.1286 14.7002 6.1286 14.7224 6.1286C14.7445 6.1286 14.7667 6.1286 14.7889 6.1286C14.811 6.1286 14.8332 6.1286 14.8553 6.1286C14.8775 6.1286 14.8996 6.1286 14.9217 6.1286C14.9439 6.1286 14.966 6.1286 14.9881 6.1286C15.0102 6.1286 15.0323 6.1286 15.0544 6.1286C15.0765 6.1286 15.0986 6.1286 15.1207 6.1286C15.1428 6.1286 15.1649 6.1286 15.187 6.1286C15.2091 6.1286 15.2312 6.1286 15.2532 6.1286C15.2753 6.1286 15.2974 6.1286 15.3194 6.1286C15.3415 6.1286 15.3636 6.1286 15.3856 6.1286C15.4077 6.1286 15.4297 6.1286 15.4517 6.1286C15.4738 6.1286 15.4958 6.1286 15.5178 6.1286C15.5399 6.1286 15.5619 6.1286 15.5839 6.1286C15.6059 6.1286 15.6279 6.1286 15.6499 6.1286C15.6719 6.1286 15.6939 6.1286 15.7159 6.1286C15.7379 6.1286 15.7599 6.1286 15.7819 6.1286C15.8039 6.1286 15.8259 6.1286 15.8479 6.1286C15.8698 6.1286 15.8918 6.1286 15.9138 6.1286C15.9357 6.1286 15.9577 6.1286 15.9797 6.1286C16.0016 6.1286 16.0236 6.1286 16.0455 6.1286C16.0675 6.1286 16.0894 6.1286 16.1114 6.1286C16.1333 6.1286 16.1552 6.1286 16.1772 6.1286C16.1991 6.1286 16.221 6.1286 16.2429 6.1286C16.2649 6.1286 16.2868 6.1286 16.3087 6.1286C16.3306 6.1286 16.3525 6.1286 16.3744 6.1286C16.3963 6.1286 16.4182 6.1286 16.4401 6.1286C16.462 6.1286 16.4839 6.1286 16.5058 6.1286C16.5277 6.1286 16.5496 6.1286 16.5715 6.1286C16.5933 6.1286 16.6152 6.1286 16.6371 6.1286C16.659 6.1286 16.6808 6.1286 16.7027 6.1286C16.7246 6.1286 16.7464 6.1286 16.7683 6.1286C16.7901 6.1286 16.812 6.1286 16.8339 6.1286C16.8557 6.1286 16.8776 6.1286 16.8994 6.1286C16.9212 6.1286 16.9431 6.1286 16.9649 6.1286C16.9868 6.1286 17.0086 6.1286 17.0304 6.1286C17.0523 6.1286 17.0741 6.1286 17.0959 6.1286C17.1178 6.1286 17.1396 6.1286 17.1614 6.1286C17.1832 6.1286 17.205 6.1286 17.2268 6.1286C17.2487 6.1286 17.2705 6.1286 17.2923 6.1286C17.3141 6.1286 17.3359 6.1286 17.3577 6.1286C17.3795 6.1286 17.4013 6.1286 17.4231 6.1286C17.4449 6.1286 17.4667 6.1286 17.4885 6.1286C17.5103 6.1286 17.5321 6.1286 17.5539 6.1286C17.5756 6.1286 17.5974 6.1286 17.6192 6.1286C17.641 6.1286 17.6628 6.1286 17.6845 6.1286C17.7063 6.1286 17.7281 6.1286 17.7499 6.1286C17.7717 6.1286 17.7934 6.1286 17.8152 6.1286C17.837 6.1286 17.8587 6.1286 17.8805 6.1286C17.9023 6.1286 17.924 6.1286 17.9458 6.1286C17.9675 6.1286 17.9893 6.1286 18.0111 6.1286C18.0328 6.1286 18.0546 6.1286 18.0763 6.1286C18.0981 6.1286 18.1198 6.1286 18.1416 6.1286C18.1633 6.1286 18.1851 6.1286 18.2068 6.1286C18.2286 6.1286 18.2503 6.1286 18.2721 6.1286C18.2938 6.1286 18.3156 6.1286 18.3373 6.1286C18.3591 6.1286 18.3808 6.1286 18.4025 6.1286C18.4243 6.1286 18.446 6.1286 18.4678 6.1286C18.4895 6.1286 18.5112 6.1286 18.533 6.1286C18.5547 6.1286 18.5764 6.1286 18.5982 6.1286C18.6199 6.1286 18.6416 6.1286 18.6634 6.1286C18.6851 6.1286 18.7068 6.1286 18.7286 6.1286C18.7503 6.1286 18.772 6.1286 18.7938 6.1286C18.8155 6.1286 18.8372 6.1286 18.8589 6.1286C18.8807 6.1286 18.9024 6.1286 18.9241 6.1286C18.9458 6.1286 18.9676 6.1286 18.9893 6.1286C19.011 6.1286 19.0328 6.1286 19.0545 6.1286C19.0762 6.1286 19.0979 6.1286 19.1197 6.1286C19.1414 6.1286 19.1631 6.1286 19.1848 6.1286C19.2066 6.1286 19.2283 6.1286 19.25 6.1286C19.2717 6.1286 19.2934 6.1286 19.3152 6.1286C19.3369 6.1286 19.3586 6.1286 19.3803 6.1286C19.4021 6.1286 19.4238 6.1286 19.4455 6.1286C19.4672 6.1286 19.489 6.1286 19.5107 6.1286C19.5324 6.1286 19.5542 6.1286 19.5759 6.1286C19.5976 6.1286 19.6193 6.1286 19.6411 6.1286C19.6628 6.1286 19.6845 6.1286 19.7062 6.1286C19.728 6.1286 19.7497 6.1286 19.7714 6.1286C19.7932 6.1286 19.8149 6.1286 19.8366 6.1286C19.8584 6.1286 19.8801 6.1286 19.9018 6.1286C19.9236 6.1286 19.9453 6.1286 19.967 6.1286C19.9888 6.1286 20.0105 6.1286 20.0322 6.1286C20.054 6.1286 20.0757 6.1286 20.0975 6.1286C20.1192 6.1286 20.1409 6.1286 20.1627 6.1286C20.1844 6.1286 20.2062 6.1286 20.2279 6.1286C20.2497 6.1286 20.2714 6.1286 20.2932 6.1286C20.3149 6.1286 20.3367 6.1286 20.3584 6.1286C20.3802 6.1286 20.4019 6.1286 20.4237 6.1286C20.4454 6.1286 20.4672 6.1286 20.4889 6.1286C20.5107 6.1286 20.5325 6.1286 20.5542 6.1286C20.576 6.1286 20.5977 6.1286 20.6195 6.1286C20.6413 6.1286 20.663 6.1286 20.6848 6.1286C20.7066 6.1286 20.7283 6.1286 20.7501 6.1286C20.7719 6.1286 20.7937 6.1286 20.8155 6.1286C20.8372 6.1286 20.859 6.1286 20.8808 6.1286C20.9026 6.1286 20.9244 6.1286 20.9461 6.1286C20.9679 6.1286 20.9897 6.1286 21.0115 6.1286C21.0333 6.1286 21.0551 6.1286 21.0769 6.1286C21.0987 6.1286 21.1205 6.1286 21.1423 6.1286C21.1641 6.1286 21.1859 6.1286 21.2077 6.1286C21.2295 6.1286 21.2513 6.1286 21.2732 6.1286C21.295 6.1286 21.3168 6.1286 21.3386 6.1286C21.3604 6.1286 21.3822 6.1286 21.4041 6.1286C21.4259 6.1286 21.4477 6.1286 21.4696 6.1286C21.4914 6.1286 21.5132 6.1286 21.5351 6.1286C21.5569 6.1286 21.5788 6.1286 21.6006 6.1286C21.6224 6.1286 21.6443 6.1286 21.6661 6.1286C21.688 6.1286 21.7099 6.1286 21.7317 6.1286C21.7536 6.1286 21.7754 6.1286 21.7973 6.1286C21.8192 6.1286 21.841 6.1286 21.8629 6.1286C21.8848 6.1286 21.9067 6.1286 21.9285 6.1286C21.9504 6.1286 21.9723 6.1286 21.9942 6.1286C22.0161 6.1286 22.038 6.1286 22.0599 6.1286C22.0818 6.1286 22.1037 6.1286 22.1256 6.1286C22.1475 6.1286 22.1694 6.1286 22.1913 6.1286C22.2132 6.1286 22.2351 6.1286 22.2571 6.1286C22.279 6.1286 22.3009 6.1286 22.3228 6.1286C22.3448 6.1286 22.3667 6.1286 22.3886 6.1286C22.4106 6.1286 22.4325 6.1286 22.4545 6.1286C22.4764 6.1286 22.4984 6.1286 22.5203 6.1286C22.5423 6.1286 22.5643 6.1286 22.5862 6.1286C22.6082 6.1286 22.6302 6.1286 22.6521 6.1286C22.6741 6.1286 22.6961 6.1286 22.7181 6.1286C22.7401 6.1286 22.7621 6.1286 22.7841 6.1286C22.8061 6.1286 22.8281 6.1286 22.8501 6.1286C22.8721 6.1286 22.8941 6.1286 22.9161 6.1286C22.9381 6.1286 22.9601 6.1286 22.9822 6.1286C23.0042 6.1286 23.0262 6.1286 23.0483 6.1286C23.0703 6.1286 23.0923 6.1286 23.1144 6.1286C23.1364 6.1286 23.1585 6.1286 23.1806 6.1286C23.2026 6.1286 23.2247 6.1286 23.2468 6.1286C23.2688 6.1286 23.2909 6.1286 23.313 6.1286C23.3351 6.1286 23.3572 6.1286 23.3793 6.1286C23.4014 6.1286 23.4235 6.1286 23.4456 6.1286C23.4677 6.1286 23.4898 6.1286 23.5119 6.1286C23.534 6.1286 23.5561 6.1286 23.5783 6.1286C23.6004 6.1286 23.6225 6.1286 23.6447 6.1286C23.6668 6.1286 23.689 6.1286 23.7111 6.1286C23.7333 6.1286 23.7555 6.1286 23.7776 6.1286C23.7998 6.1286 23.822 6.1286 23.8441 6.1286C23.8663 6.1286 23.8885 6.1286 23.9107 6.1286C23.9329 6.1286 23.9551 6.1286 23.9773 6.1286C23.9995 6.1286 24.0217 6.1286 24.044 6.1286C24.0662 6.1286 24.0884 6.1286 24.1106 6.1286C24.1329 6.1286 24.1551 6.1286 24.1774 6.1286C24.1996 6.1286 24.2219 6.1286 24.2441 6.1286C24.2664 6.1286 24.2887 6.1286 24.311 6.1286C24.3332 6.1286 24.3555 6.1286 24.3778 6.1286C24.4001 6.1286 24.4224 6.1286 24.4447 6.1286C24.467 6.1286 24.4893 6.1286 24.5117 6.1286C24.534 6.1286 24.5563 6.1286 24.5786 6.1286C24.601 6.1286 24.6233 6.1286 24.6457 6.1286C24.668 6.1286 24.6904 6.1286 24.7128 6.1286C24.7351 6.1286 24.7575 6.1286 24.7799 6.1286C24.8023 6.1286 24.8247 6.1286 24.847 6.1286C24.8694 6.1286 24.8919 6.1286 24.9143 6.1286C24.9367 6.1286 24.9591 6.1286 24.9815 6.1286C25.004 6.1286 25.0264 6.1286 25.0489 6.1286C25.0713 6.1286 25.0938 6.1286 25.1162 6.1286C25.1387 6.1286 25.1612 6.1286 25.1836 6.1286C25.2061 6.1286 25.2286 6.1286 25.2511 6.1286C25.2736 6.1286 25.2961 6.1286 25.3186 6.1286C25.3411 6.1286 25.3637 6.1286 25.3862 6.1286C25.4087 6.1286 25.4313 6.1286 25.4538 6.1286C25.4764 6.1286 25.4989 6.1286 25.5215 6.1286C25.5441 6.1286 25.5666 6.1286 25.5892 6.1286C25.6118 6.1286 25.6344 6.1286 25.657 6.1286C25.6796 6.1286 25.7022 6.1286 25.7248 6.1286C25.7474 6.1286 25.7701 6.1286 25.7927 6.1286C25.8154 6.1286 25.838 6.1286 25.8607 6.1286C25.8833 6.1286 25.906 6.1286 25.9287 6.1286C25.9513 6.1286 25.974 6.1286 25.9967 6.1286C26.0194 6.1286 26.0421 6.1286 26.0648 6.1286C26.0875 6.1286 26.1103 6.1286 26.133 6.1286C26.1557 6.1286 26.1785 6.1286 26.2012 6.1286C26.224 6.1286 26.2468 6.1286 26.2695 6.1286C26.2923 6.1286 26.3151 6.1286 26.3379 6.1286C26.3607 6.1286 26.3835 6.1286 26.4063 6.1286C26.4291 6.1286 26.4519 6.1286 26.4748 6.1286C26.4976 6.1286 26.5204 6.1286 26.5433 6.1286C26.5661 6.1286 26.589 6.1286 26.6119 6.1286C26.6347 6.1286 26.6576 6.1286 26.6805 6.1286C26.7034 6.1286 26.7263 6.1286 26.7492 6.1286C26.7722 6.1286 26.7951 6.1286 26.818 6.1286C26.841 6.1286 26.8639 6.1286 26.8869 6.1286C26.9098 6.1286 26.9328 6.1286 26.9558 6.1286C26.9788 6.1286 27.0017 6.1286 27.0247 6.1286C27.0478 6.1286 27.0708 6.1286 27.0938 6.1286C27.1168 6.1286 27.1398 6.1286 27.1629 6.1286C27.1859 6.1286 27.209 6.1286 27.2321 6.1286C27.2551 6.1286 27.2782 6.1286 27.3013 6.1286C27.3244 6.1286 27.3475 6.1286 27.3706 6.1286C27.3937 6.1286 27.4168 6.1286 27.44 6.1286C27.4631 6.1286 27.4863 6.1286 27.5094 6.1286C27.5326 6.1286 27.5558 6.1286 27.5789 6.1286C27.6021 6.1286 27.6253 6.1286 27.6485 6.1286C27.6717 6.1286 27.6949 6.1286 27.7182 6.1286C27.7414 6.1286 27.7646 6.1286 27.7879 6.1286C27.8112 6.1286 27.8344 6.1286 27.8577 6.1286C27.881 6.1286 27.9043 6.1286 27.9276 6.1286C27.9509 6.1286 27.9742 6.1286 27.9975 6.1286C28.0208 6.1286 28.0442 6.1286 28.0675 6.1286C28.0909 6.1286 28.1142 6.1286 28.1376 6.1286C28.161 6.1286 28.1844 6.1286 28.2078 6.1286C28.2312 6.1286 28.2546 6.1286 28.278 6.1286C28.3014 6.1286 28.3249 6.1286 28.3483 6.1286C28.3718 6.1286 28.3952 6.1286 28.4187 6.1286C28.4422 6.1286 28.4657 6.1286 28.4892 6.1286C28.5127 6.1286 28.5362 6.1286 28.5597 6.1286C28.5832 6.1286 28.6068 6.1286 28.6303 6.1286C28.6539 6.1286 28.6775 6.1286 28.701 6.1286C28.7246 6.1286 28.7482 6.1286 28.7718 6.1286C28.7954 6.1286 28.819 6.1286 28.8427 6.1286C28.8663 6.1286 28.89 6.1286 28.9136 6.1286C28.9373 6.1286 28.9609 6.1286 28.9846 6.1286C29.0083 6.1286 29.032 6.1286 29.0557 6.1286C29.0795 6.1286 29.1032 6.1286 29.1269 6.1286C29.1507 6.1286 29.1744 6.1286 29.1982 6.1286C29.222 6.1286 29.2457 6.1286 29.2695 6.1286C29.2933 6.1286 29.3171 6.1286 29.341 6.1286C29.3648 6.1286 29.3886 6.1286 29.4125 6.1286C29.4363 6.1286 29.4602 6.1286 29.4841 6.1286C29.508 6.1286 29.5318 6.1286 29.5558 6.1286C29.5797 6.1286 29.6036 6.1286 29.6275 6.1286C29.6515 6.1286 29.6754 6.1286 29.6994 6.1286C29.7233 6.1286 29.7473 6.1286 29.7713 6.1286C29.7953 6.1286 29.8193 6.1286 29.8434 6.1286C29.8674 6.1286 29.8914 6.1286 29.9155 6.1286C29.9395 6.1286 29.9636 6.1286 29.9877 6.1286C30.0118 6.1286 30.0359 6.1286 30.06 6.1286C30.0841 6.1286 30.1082 6.1286 30.1324 6.1286C30.1565 6.1286 30.1807 6.1286 30.2048 6.1286C30.229 6.1286 30.2532 6.1286 30.2774 6.1286C30.3016 6.1286 30.3258 6.1286 30.3501 6.1286C30.3743 6.1286 30.3985 6.1286 30.4228 6.1286C30.4471 6.1286 30.4714 6.1286 30.4956 6.1286C30.5199 6.1286 30.5443 6.1286 30.5686 6.1286C30.5929 6.1286 30.6173 6.1286 30.6416 6.1286C30.666 6.1286 30.6903 6.1286 30.7147 6.1286C30.7391 6.1286 30.7635 6.1286 30.788 6.1286C30.8124 6.1286 30.8368 6.1286 30.8613 6.1286C30.8857 6.1286 30.9102 6.1286 30.9347 6.1286C30.9592 6.1286 30.9837 6.1286 31.0082 6.1286C31.0327 6.1286 31.0572 6.1286 31.0818 6.1286C31.1063 6.1286 31.1309 6.1286 31.1555 6.1286C31.1801 6.1286 31.2047 6.1286 31.2293 6.1286C31.2539 6.1286 31.2785 6.1286 31.3032 6.1286C31.3278 6.1286 31.3525 6.1286 31.3772 6.1286C31.4018 6.1286 31.4265 6.1286 31.4513 6.1286C31.476 6.1286 31.5007 6.1286 31.5254 6.1286C31.5502 6.1286 31.575 6.1286 31.5997 6.1286C31.6245 6.1286 31.6493 6.1286 31.6741 6.1286C31.6989 6.1286 31.7238 6.1286 31.7486 6.1286C31.7735 6.1286 31.7983 6.1286 31.8232 6.1286C31.8481 6.1286 31.873 6.1286 31.8979 6.1286C31.9229 6.1286 31.9478 6.1286 31.9727 6.1286C31.9977 6.1286 32.0227 6.1286 32.0477 6.1286C32.0726 6.1286 32.0976 6.1286 32.1227 6.1286C32.1477 6.1286 32.1727 6.1286 32.1978 6.1286C32.2228 6.1286 32.2479 6.1286 32.273 6.1286C32.2981 6.1286 32.3232 6.1286 32.3483 6.1286C32.3735 6.1286 32.3986 6.1286 32.4238 6.1286C32.449 6.1286 32.4741 6.1286 32.4993 6.1286C32.5245 6.1286 32.5498 6.1286 32.575 6.1286C32.6002 6.1286 32.6255 6.1286 32.6508 6.1286C32.676 6.1286 32.7013 6.1286 32.7266 6.1286C32.7519 6.1286 32.7773 6.1286 32.8026 6.1286C32.828 6.1286 32.8533 6.1286 32.8787 6.1286C32.9041 6.1286 32.9295 6.1286 32.9549 6.1286C32.9803 6.1286 33.0058 6.1286 33.0312 6.1286C33.0567 6.1286 33.0822 6.1286 33.1077 6.1286C33.1331 6.1286 33.1587 6.1286 33.1842 6.1286C33.2097 6.1286 33.2353 6.1286 33.2608 6.1286C33.2864 6.1286 33.312 6.1286 33.3376 6.1286C33.3632 6.1286 33.3888 6.1286 33.4145 6.1286C33.4401 6.1286 33.4658 6.1286 33.4915 6.1286C33.5172 6.1286 33.5429 6.1286 33.5686 6.1286C33.5943 6.1286 33.6201 6.1286 33.6458 6.1286C33.6716 6.1286 33.6974 6.1286 33.7232 6.1286C33.749 6.1286 33.7748 6.1286 33.8006 6.1286C33.8265 6.1286 33.8523 6.1286 33.8782 6.1286C33.9041 6.1286 33.93 6.1286 33.9559 6.1286C33.9818 6.1286 34.0078 6.1286 34.0337 6.1286C34.0597 6.1286 34.0857 6.1286 34.1117 6.1286C34.1377 6.1286 34.1637 6.1286 34.1897 6.1286C34.2157 6.1286 34.2418 6.1286 34.2679 6.1286C34.294 6.1286 34.3201 6.1286 34.3462 6.1286C34.3723 6.1286 34.3984 6.1286 34.4246 6.1286C34.4508 6.1286 34.4769 6.1286 34.5031 6.1286C34.5293 6.1286 34.5556 6.1286 34.5818 6.1286C34.608 6.1286 34.6343 6.1286 34.6606 6.1286C34.6869 6.1286 34.7132 6.1286 34.7395 6.1286C34.7658 6.1286 34.7922 6.1286 34.8185 6.1286C34.8449 6.1286 34.8713 6.1286 34.8977 6.1286C34.9241 6.1286 34.9505 6.1286 34.977 6.1286C35.0034 6.1286 35.0299 6.1286 35.0564 6.1286C35.0829 6.1286 35.1094 6.1286 35.1359 6.1286C35.1624 6.1286 35.189 6.1286 35.2156 6.1286C35.2421 6.1286 35.2687 6.1286 35.2954 6.1286C35.322 6.1286 35.3486 6.1286 35.3753 6.1286C35.4019 6.1286 35.4286 6.1286 35.4553 6.1286C35.482 6.1286 35.5088 6.1286 35.5355 6.1286C35.5622 6.1286 35.589 6.1286 35.6158 6.1286C35.6426 6.1286 35.6694 6.1286 35.6962 6.1286C35.7231 6.1286 35.7499 6.1286 35.7768 6.1286C35.8037 6.1286 35.8306 6.1286 35.8575 6.1286C35.8844 6.1286 35.9114 6.1286 35.9383 6.1286C35.9653 6.1286 35.9923 6.1286 36.0193 6.1286C36.0463 6.1286 36.0734 6.1286 36.1004 6.1286C36.1275 6.1286 36.1545 6.1286 36.1816 6.1286C36.2087 6.1286 36.2359 6.1286 36.263 6.1286C36.2901 6.1286 36.3173 6.1286 36.3445 6.1286C36.3717 6.1286 36.3989 6.1286 36.4261 6.1286C36.4534 6.1286 36.4806 6.1286 36.5079 6.1286C36.5352 6.1286 36.5625 6.1286 36.5898 6.1286C36.6171 6.1286 36.6445 6.1286 36.6719 6.1286C36.6992 6.1286 36.7266 6.1286 36.7541 6.1286C36.7815 6.1286 36.8089 6.1286 36.8364 6.1286C36.8638 6.1286 36.8913 6.1286 36.9188 6.1286C36.9463 6.1286 36.9739 6.1286 37.0014 6.1286C37.029 6.1286 37.0566 6.1286 37.0842 6.1286C37.1118 6.1286 37.1394 6.1286 37.1671 6.1286C37.1947 6.1286 37.2224 6.1286 37.2501 6.1286C37.2778 6.1286 37.3055 6.1286 37.3332 6.1286C37.361 6.1286 37.3888 6.1286 37.4165 6.1286C37.4443 6.1286 37.4722 6.1286 37.5 6.1286V7.1286C37.4722 7.1286 37.4443 7.1286 37.4165 7.1286C37.3888 7.1286 37.361 7.1286 37.3332 7.1286C37.3055 7.1286 37.2778 7.1286 37.2501 7.1286C37.2224 7.1286 37.1947 7.1286 37.1671 7.1286C37.1394 7.1286 37.1118 7.1286 37.0842 7.1286C37.0566 7.1286 37.029 7.1286 37.0014 7.1286C36.9739 7.1286 36.9463 7.1286 36.9188 7.1286C36.8913 7.1286 36.8638 7.1286 36.8364 7.1286C36.8089 7.1286 36.7815 7.1286 36.7541 7.1286C36.7266 7.1286 36.6992 7.1286 36.6719 7.1286C36.6445 7.1286 36.6171 7.1286 36.5898 7.1286C36.5625 7.1286 36.5352 7.1286 36.5079 7.1286C36.4806 7.1286 36.4534 7.1286 36.4261 7.1286C36.3989 7.1286 36.3717 7.1286 36.3445 7.1286C36.3173 7.1286 36.2901 7.1286 36.263 7.1286C36.2359 7.1286 36.2087 7.1286 36.1816 7.1286C36.1545 7.1286 36.1275 7.1286 36.1004 7.1286C36.0734 7.1286 36.0463 7.1286 36.0193 7.1286C35.9923 7.1286 35.9653 7.1286 35.9383 7.1286C35.9114 7.1286 35.8844 7.1286 35.8575 7.1286C35.8306 7.1286 35.8037 7.1286 35.7768 7.1286C35.7499 7.1286 35.7231 7.1286 35.6962 7.1286C35.6694 7.1286 35.6426 7.1286 35.6158 7.1286C35.589 7.1286 35.5622 7.1286 35.5355 7.1286C35.5088 7.1286 35.482 7.1286 35.4553 7.1286C35.4286 7.1286 35.4019 7.1286 35.3753 7.1286C35.3486 7.1286 35.322 7.1286 35.2954 7.1286C35.2687 7.1286 35.2421 7.1286 35.2156 7.1286C35.189 7.1286 35.1624 7.1286 35.1359 7.1286C35.1094 7.1286 35.0829 7.1286 35.0564 7.1286C35.0299 7.1286 35.0034 7.1286 34.977 7.1286C34.9505 7.1286 34.9241 7.1286 34.8977 7.1286C34.8713 7.1286 34.8449 7.1286 34.8185 7.1286C34.7922 7.1286 34.7658 7.1286 34.7395 7.1286C34.7132 7.1286 34.6869 7.1286 34.6606 7.1286C34.6343 7.1286 34.608 7.1286 34.5818 7.1286C34.5556 7.1286 34.5293 7.1286 34.5031 7.1286C34.4769 7.1286 34.4508 7.1286 34.4246 7.1286C34.3984 7.1286 34.3723 7.1286 34.3462 7.1286C34.3201 7.1286 34.294 7.1286 34.2679 7.1286C34.2418 7.1286 34.2157 7.1286 34.1897 7.1286C34.1637 7.1286 34.1377 7.1286 34.1117 7.1286C34.0857 7.1286 34.0597 7.1286 34.0337 7.1286C34.0078 7.1286 33.9818 7.1286 33.9559 7.1286C33.93 7.1286 33.9041 7.1286 33.8782 7.1286C33.8523 7.1286 33.8265 7.1286 33.8006 7.1286C33.7748 7.1286 33.749 7.1286 33.7232 7.1286C33.6974 7.1286 33.6716 7.1286 33.6458 7.1286C33.6201 7.1286 33.5943 7.1286 33.5686 7.1286C33.5429 7.1286 33.5172 7.1286 33.4915 7.1286C33.4658 7.1286 33.4401 7.1286 33.4145 7.1286C33.3888 7.1286 33.3632 7.1286 33.3376 7.1286C33.312 7.1286 33.2864 7.1286 33.2608 7.1286C33.2353 7.1286 33.2097 7.1286 33.1842 7.1286C33.1587 7.1286 33.1331 7.1286 33.1077 7.1286C33.0822 7.1286 33.0567 7.1286 33.0312 7.1286C33.0058 7.1286 32.9803 7.1286 32.9549 7.1286C32.9295 7.1286 32.9041 7.1286 32.8787 7.1286C32.8533 7.1286 32.828 7.1286 32.8026 7.1286C32.7773 7.1286 32.7519 7.1286 32.7266 7.1286C32.7013 7.1286 32.676 7.1286 32.6508 7.1286C32.6255 7.1286 32.6002 7.1286 32.575 7.1286C32.5498 7.1286 32.5245 7.1286 32.4993 7.1286C32.4741 7.1286 32.449 7.1286 32.4238 7.1286C32.3986 7.1286 32.3735 7.1286 32.3483 7.1286C32.3232 7.1286 32.2981 7.1286 32.273 7.1286C32.2479 7.1286 32.2228 7.1286 32.1978 7.1286C32.1727 7.1286 32.1477 7.1286 32.1227 7.1286C32.0976 7.1286 32.0726 7.1286 32.0477 7.1286C32.0227 7.1286 31.9977 7.1286 31.9727 7.1286C31.9478 7.1286 31.9229 7.1286 31.8979 7.1286C31.873 7.1286 31.8481 7.1286 31.8232 7.1286C31.7983 7.1286 31.7735 7.1286 31.7486 7.1286C31.7238 7.1286 31.6989 7.1286 31.6741 7.1286C31.6493 7.1286 31.6245 7.1286 31.5997 7.1286C31.575 7.1286 31.5502 7.1286 31.5254 7.1286C31.5007 7.1286 31.476 7.1286 31.4513 7.1286C31.4265 7.1286 31.4018 7.1286 31.3772 7.1286C31.3525 7.1286 31.3278 7.1286 31.3032 7.1286C31.2785 7.1286 31.2539 7.1286 31.2293 7.1286C31.2047 7.1286 31.1801 7.1286 31.1555 7.1286C31.1309 7.1286 31.1063 7.1286 31.0818 7.1286C31.0572 7.1286 31.0327 7.1286 31.0082 7.1286C30.9837 7.1286 30.9592 7.1286 30.9347 7.1286C30.9102 7.1286 30.8857 7.1286 30.8613 7.1286C30.8368 7.1286 30.8124 7.1286 30.788 7.1286C30.7635 7.1286 30.7391 7.1286 30.7147 7.1286C30.6903 7.1286 30.666 7.1286 30.6416 7.1286C30.6173 7.1286 30.5929 7.1286 30.5686 7.1286C30.5443 7.1286 30.5199 7.1286 30.4956 7.1286C30.4714 7.1286 30.4471 7.1286 30.4228 7.1286C30.3985 7.1286 30.3743 7.1286 30.3501 7.1286C30.3258 7.1286 30.3016 7.1286 30.2774 7.1286C30.2532 7.1286 30.229 7.1286 30.2048 7.1286C30.1807 7.1286 30.1565 7.1286 30.1324 7.1286C30.1082 7.1286 30.0841 7.1286 30.06 7.1286C30.0359 7.1286 30.0118 7.1286 29.9877 7.1286C29.9636 7.1286 29.9395 7.1286 29.9155 7.1286C29.8914 7.1286 29.8674 7.1286 29.8434 7.1286C29.8193 7.1286 29.7953 7.1286 29.7713 7.1286C29.7473 7.1286 29.7233 7.1286 29.6994 7.1286C29.6754 7.1286 29.6515 7.1286 29.6275 7.1286C29.6036 7.1286 29.5797 7.1286 29.5558 7.1286C29.5318 7.1286 29.508 7.1286 29.4841 7.1286C29.4602 7.1286 29.4363 7.1286 29.4125 7.1286C29.3886 7.1286 29.3648 7.1286 29.341 7.1286C29.3171 7.1286 29.2933 7.1286 29.2695 7.1286C29.2457 7.1286 29.222 7.1286 29.1982 7.1286C29.1744 7.1286 29.1507 7.1286 29.1269 7.1286C29.1032 7.1286 29.0795 7.1286 29.0557 7.1286C29.032 7.1286 29.0083 7.1286 28.9846 7.1286C28.9609 7.1286 28.9373 7.1286 28.9136 7.1286C28.89 7.1286 28.8663 7.1286 28.8427 7.1286C28.819 7.1286 28.7954 7.1286 28.7718 7.1286C28.7482 7.1286 28.7246 7.1286 28.701 7.1286C28.6775 7.1286 28.6539 7.1286 28.6303 7.1286C28.6068 7.1286 28.5832 7.1286 28.5597 7.1286C28.5362 7.1286 28.5127 7.1286 28.4892 7.1286C28.4657 7.1286 28.4422 7.1286 28.4187 7.1286C28.3952 7.1286 28.3718 7.1286 28.3483 7.1286C28.3249 7.1286 28.3014 7.1286 28.278 7.1286C28.2546 7.1286 28.2312 7.1286 28.2078 7.1286C28.1844 7.1286 28.161 7.1286 28.1376 7.1286C28.1142 7.1286 28.0909 7.1286 28.0675 7.1286C28.0442 7.1286 28.0208 7.1286 27.9975 7.1286C27.9742 7.1286 27.9509 7.1286 27.9276 7.1286C27.9043 7.1286 27.881 7.1286 27.8577 7.1286C27.8344 7.1286 27.8112 7.1286 27.7879 7.1286C27.7646 7.1286 27.7414 7.1286 27.7182 7.1286C27.6949 7.1286 27.6717 7.1286 27.6485 7.1286C27.6253 7.1286 27.6021 7.1286 27.5789 7.1286C27.5558 7.1286 27.5326 7.1286 27.5094 7.1286C27.4863 7.1286 27.4631 7.1286 27.44 7.1286C27.4168 7.1286 27.3937 7.1286 27.3706 7.1286C27.3475 7.1286 27.3244 7.1286 27.3013 7.1286C27.2782 7.1286 27.2551 7.1286 27.2321 7.1286C27.209 7.1286 27.1859 7.1286 27.1629 7.1286C27.1398 7.1286 27.1168 7.1286 27.0938 7.1286C27.0708 7.1286 27.0478 7.1286 27.0247 7.1286C27.0017 7.1286 26.9788 7.1286 26.9558 7.1286C26.9328 7.1286 26.9098 7.1286 26.8869 7.1286C26.8639 7.1286 26.841 7.1286 26.818 7.1286C26.7951 7.1286 26.7722 7.1286 26.7492 7.1286C26.7263 7.1286 26.7034 7.1286 26.6805 7.1286C26.6576 7.1286 26.6347 7.1286 26.6119 7.1286C26.589 7.1286 26.5661 7.1286 26.5433 7.1286C26.5204 7.1286 26.4976 7.1286 26.4748 7.1286C26.4519 7.1286 26.4291 7.1286 26.4063 7.1286C26.3835 7.1286 26.3607 7.1286 26.3379 7.1286C26.3151 7.1286 26.2923 7.1286 26.2695 7.1286C26.2468 7.1286 26.224 7.1286 26.2012 7.1286C26.1785 7.1286 26.1557 7.1286 26.133 7.1286C26.1103 7.1286 26.0875 7.1286 26.0648 7.1286C26.0421 7.1286 26.0194 7.1286 25.9967 7.1286C25.974 7.1286 25.9513 7.1286 25.9287 7.1286C25.906 7.1286 25.8833 7.1286 25.8607 7.1286C25.838 7.1286 25.8154 7.1286 25.7927 7.1286C25.7701 7.1286 25.7474 7.1286 25.7248 7.1286C25.7022 7.1286 25.6796 7.1286 25.657 7.1286C25.6344 7.1286 25.6118 7.1286 25.5892 7.1286C25.5666 7.1286 25.5441 7.1286 25.5215 7.1286C25.4989 7.1286 25.4764 7.1286 25.4538 7.1286C25.4313 7.1286 25.4087 7.1286 25.3862 7.1286C25.3637 7.1286 25.3411 7.1286 25.3186 7.1286C25.2961 7.1286 25.2736 7.1286 25.2511 7.1286C25.2286 7.1286 25.2061 7.1286 25.1836 7.1286C25.1612 7.1286 25.1387 7.1286 25.1162 7.1286C25.0938 7.1286 25.0713 7.1286 25.0489 7.1286C25.0264 7.1286 25.004 7.1286 24.9815 7.1286C24.9591 7.1286 24.9367 7.1286 24.9143 7.1286C24.8919 7.1286 24.8694 7.1286 24.847 7.1286C24.8247 7.1286 24.8023 7.1286 24.7799 7.1286C24.7575 7.1286 24.7351 7.1286 24.7128 7.1286C24.6904 7.1286 24.668 7.1286 24.6457 7.1286C24.6233 7.1286 24.601 7.1286 24.5786 7.1286C24.5563 7.1286 24.534 7.1286 24.5117 7.1286C24.4893 7.1286 24.467 7.1286 24.4447 7.1286C24.4224 7.1286 24.4001 7.1286 24.3778 7.1286C24.3555 7.1286 24.3332 7.1286 24.311 7.1286C24.2887 7.1286 24.2664 7.1286 24.2441 7.1286C24.2219 7.1286 24.1996 7.1286 24.1774 7.1286C24.1551 7.1286 24.1329 7.1286 24.1106 7.1286C24.0884 7.1286 24.0662 7.1286 24.044 7.1286C24.0217 7.1286 23.9995 7.1286 23.9773 7.1286C23.9551 7.1286 23.9329 7.1286 23.9107 7.1286C23.8885 7.1286 23.8663 7.1286 23.8441 7.1286C23.822 7.1286 23.7998 7.1286 23.7776 7.1286C23.7555 7.1286 23.7333 7.1286 23.7111 7.1286C23.689 7.1286 23.6668 7.1286 23.6447 7.1286C23.6225 7.1286 23.6004 7.1286 23.5783 7.1286C23.5561 7.1286 23.534 7.1286 23.5119 7.1286C23.4898 7.1286 23.4677 7.1286 23.4456 7.1286C23.4235 7.1286 23.4014 7.1286 23.3793 7.1286C23.3572 7.1286 23.3351 7.1286 23.313 7.1286C23.2909 7.1286 23.2688 7.1286 23.2468 7.1286C23.2247 7.1286 23.2026 7.1286 23.1806 7.1286C23.1585 7.1286 23.1364 7.1286 23.1144 7.1286C23.0923 7.1286 23.0703 7.1286 23.0483 7.1286C23.0262 7.1286 23.0042 7.1286 22.9822 7.1286C22.9601 7.1286 22.9381 7.1286 22.9161 7.1286C22.8941 7.1286 22.8721 7.1286 22.8501 7.1286C22.8281 7.1286 22.8061 7.1286 22.7841 7.1286C22.7621 7.1286 22.7401 7.1286 22.7181 7.1286C22.6961 7.1286 22.6741 7.1286 22.6521 7.1286C22.6302 7.1286 22.6082 7.1286 22.5862 7.1286C22.5643 7.1286 22.5423 7.1286 22.5203 7.1286C22.4984 7.1286 22.4764 7.1286 22.4545 7.1286C22.4325 7.1286 22.4106 7.1286 22.3886 7.1286C22.3667 7.1286 22.3448 7.1286 22.3228 7.1286C22.3009 7.1286 22.279 7.1286 22.2571 7.1286C22.2351 7.1286 22.2132 7.1286 22.1913 7.1286C22.1694 7.1286 22.1475 7.1286 22.1256 7.1286C22.1037 7.1286 22.0818 7.1286 22.0599 7.1286C22.038 7.1286 22.0161 7.1286 21.9942 7.1286C21.9723 7.1286 21.9504 7.1286 21.9285 7.1286C21.9067 7.1286 21.8848 7.1286 21.8629 7.1286C21.841 7.1286 21.8192 7.1286 21.7973 7.1286C21.7754 7.1286 21.7536 7.1286 21.7317 7.1286C21.7099 7.1286 21.688 7.1286 21.6661 7.1286C21.6443 7.1286 21.6224 7.1286 21.6006 7.1286C21.5788 7.1286 21.5569 7.1286 21.5351 7.1286C21.5132 7.1286 21.4914 7.1286 21.4696 7.1286C21.4477 7.1286 21.4259 7.1286 21.4041 7.1286C21.3822 7.1286 21.3604 7.1286 21.3386 7.1286C21.3168 7.1286 21.295 7.1286 21.2732 7.1286C21.2513 7.1286 21.2295 7.1286 21.2077 7.1286C21.1859 7.1286 21.1641 7.1286 21.1423 7.1286C21.1205 7.1286 21.0987 7.1286 21.0769 7.1286C21.0551 7.1286 21.0333 7.1286 21.0115 7.1286C20.9897 7.1286 20.9679 7.1286 20.9461 7.1286C20.9244 7.1286 20.9026 7.1286 20.8808 7.1286C20.859 7.1286 20.8372 7.1286 20.8155 7.1286C20.7937 7.1286 20.7719 7.1286 20.7501 7.1286C20.7283 7.1286 20.7066 7.1286 20.6848 7.1286C20.663 7.1286 20.6413 7.1286 20.6195 7.1286C20.5977 7.1286 20.576 7.1286 20.5542 7.1286C20.5325 7.1286 20.5107 7.1286 20.4889 7.1286C20.4672 7.1286 20.4454 7.1286 20.4237 7.1286C20.4019 7.1286 20.3802 7.1286 20.3584 7.1286C20.3367 7.1286 20.3149 7.1286 20.2932 7.1286C20.2714 7.1286 20.2497 7.1286 20.2279 7.1286C20.2062 7.1286 20.1844 7.1286 20.1627 7.1286C20.1409 7.1286 20.1192 7.1286 20.0975 7.1286C20.0757 7.1286 20.054 7.1286 20.0322 7.1286C20.0105 7.1286 19.9888 7.1286 19.967 7.1286C19.9453 7.1286 19.9236 7.1286 19.9018 7.1286C19.8801 7.1286 19.8584 7.1286 19.8366 7.1286C19.8149 7.1286 19.7932 7.1286 19.7714 7.1286C19.7497 7.1286 19.728 7.1286 19.7062 7.1286C19.6845 7.1286 19.6628 7.1286 19.6411 7.1286C19.6193 7.1286 19.5976 7.1286 19.5759 7.1286C19.5542 7.1286 19.5324 7.1286 19.5107 7.1286C19.489 7.1286 19.4672 7.1286 19.4455 7.1286C19.4238 7.1286 19.4021 7.1286 19.3803 7.1286C19.3586 7.1286 19.3369 7.1286 19.3152 7.1286C19.2934 7.1286 19.2717 7.1286 19.25 7.1286C19.2283 7.1286 19.2066 7.1286 19.1848 7.1286C19.1631 7.1286 19.1414 7.1286 19.1197 7.1286C19.0979 7.1286 19.0762 7.1286 19.0545 7.1286C19.0328 7.1286 19.011 7.1286 18.9893 7.1286C18.9676 7.1286 18.9458 7.1286 18.9241 7.1286C18.9024 7.1286 18.8807 7.1286 18.8589 7.1286C18.8372 7.1286 18.8155 7.1286 18.7938 7.1286C18.772 7.1286 18.7503 7.1286 18.7286 7.1286C18.7068 7.1286 18.6851 7.1286 18.6634 7.1286C18.6416 7.1286 18.6199 7.1286 18.5982 7.1286C18.5764 7.1286 18.5547 7.1286 18.533 7.1286C18.5112 7.1286 18.4895 7.1286 18.4678 7.1286C18.446 7.1286 18.4243 7.1286 18.4025 7.1286C18.3808 7.1286 18.3591 7.1286 18.3373 7.1286C18.3156 7.1286 18.2938 7.1286 18.2721 7.1286C18.2503 7.1286 18.2286 7.1286 18.2068 7.1286C18.1851 7.1286 18.1633 7.1286 18.1416 7.1286C18.1198 7.1286 18.0981 7.1286 18.0763 7.1286C18.0546 7.1286 18.0328 7.1286 18.0111 7.1286C17.9893 7.1286 17.9675 7.1286 17.9458 7.1286C17.924 7.1286 17.9023 7.1286 17.8805 7.1286C17.8587 7.1286 17.837 7.1286 17.8152 7.1286C17.7934 7.1286 17.7717 7.1286 17.7499 7.1286C17.7281 7.1286 17.7063 7.1286 17.6845 7.1286C17.6628 7.1286 17.641 7.1286 17.6192 7.1286C17.5974 7.1286 17.5756 7.1286 17.5539 7.1286C17.5321 7.1286 17.5103 7.1286 17.4885 7.1286C17.4667 7.1286 17.4449 7.1286 17.4231 7.1286C17.4013 7.1286 17.3795 7.1286 17.3577 7.1286C17.3359 7.1286 17.3141 7.1286 17.2923 7.1286C17.2705 7.1286 17.2487 7.1286 17.2268 7.1286C17.205 7.1286 17.1832 7.1286 17.1614 7.1286C17.1396 7.1286 17.1178 7.1286 17.0959 7.1286C17.0741 7.1286 17.0523 7.1286 17.0304 7.1286C17.0086 7.1286 16.9868 7.1286 16.9649 7.1286C16.9431 7.1286 16.9212 7.1286 16.8994 7.1286C16.8776 7.1286 16.8557 7.1286 16.8339 7.1286C16.812 7.1286 16.7901 7.1286 16.7683 7.1286C16.7464 7.1286 16.7246 7.1286 16.7027 7.1286C16.6808 7.1286 16.659 7.1286 16.6371 7.1286C16.6152 7.1286 16.5933 7.1286 16.5715 7.1286C16.5496 7.1286 16.5277 7.1286 16.5058 7.1286C16.4839 7.1286 16.462 7.1286 16.4401 7.1286C16.4182 7.1286 16.3963 7.1286 16.3744 7.1286C16.3525 7.1286 16.3306 7.1286 16.3087 7.1286C16.2868 7.1286 16.2649 7.1286 16.2429 7.1286C16.221 7.1286 16.1991 7.1286 16.1772 7.1286C16.1552 7.1286 16.1333 7.1286 16.1114 7.1286C16.0894 7.1286 16.0675 7.1286 16.0455 7.1286C16.0236 7.1286 16.0016 7.1286 15.9797 7.1286C15.9577 7.1286 15.9357 7.1286 15.9138 7.1286C15.8918 7.1286 15.8698 7.1286 15.8479 7.1286C15.8259 7.1286 15.8039 7.1286 15.7819 7.1286C15.7599 7.1286 15.7379 7.1286 15.7159 7.1286C15.6939 7.1286 15.6719 7.1286 15.6499 7.1286C15.6279 7.1286 15.6059 7.1286 15.5839 7.1286C15.5619 7.1286 15.5399 7.1286 15.5178 7.1286C15.4958 7.1286 15.4738 7.1286 15.4517 7.1286C15.4297 7.1286 15.4077 7.1286 15.3856 7.1286C15.3636 7.1286 15.3415 7.1286 15.3194 7.1286C15.2974 7.1286 15.2753 7.1286 15.2532 7.1286C15.2312 7.1286 15.2091 7.1286 15.187 7.1286C15.1649 7.1286 15.1428 7.1286 15.1207 7.1286C15.0986 7.1286 15.0765 7.1286 15.0544 7.1286C15.0323 7.1286 15.0102 7.1286 14.9881 7.1286C14.966 7.1286 14.9439 7.1286 14.9217 7.1286C14.8996 7.1286 14.8775 7.1286 14.8553 7.1286C14.8332 7.1286 14.811 7.1286 14.7889 7.1286C14.7667 7.1286 14.7445 7.1286 14.7224 7.1286C14.7002 7.1286 14.678 7.1286 14.6559 7.1286C14.6337 7.1286 14.6115 7.1286 14.5893 7.1286C14.5671 7.1286 14.5449 7.1286 14.5227 7.1286C14.5005 7.1286 14.4783 7.1286 14.456 7.1286C14.4338 7.1286 14.4116 7.1286 14.3894 7.1286C14.3671 7.1286 14.3449 7.1286 14.3226 7.1286C14.3004 7.1286 14.2781 7.1286 14.2559 7.1286C14.2336 7.1286 14.2113 7.1286 14.189 7.1286C14.1668 7.1286 14.1445 7.1286 14.1222 7.1286C14.0999 7.1286 14.0776 7.1286 14.0553 7.1286C14.033 7.1286 14.0107 7.1286 13.9883 7.1286C13.966 7.1286 13.9437 7.1286 13.9214 7.1286C13.899 7.1286 13.8767 7.1286 13.8543 7.1286C13.832 7.1286 13.8096 7.1286 13.7872 7.1286C13.7649 7.1286 13.7425 7.1286 13.7201 7.1286C13.6977 7.1286 13.6753 7.1286 13.653 7.1286C13.6306 7.1286 13.6081 7.1286 13.5857 7.1286C13.5633 7.1286 13.5409 7.1286 13.5185 7.1286C13.496 7.1286 13.4736 7.1286 13.4511 7.1286C13.4287 7.1286 13.4062 7.1286 13.3838 7.1286C13.3613 7.1286 13.3388 7.1286 13.3164 7.1286C13.2939 7.1286 13.2714 7.1286 13.2489 7.1286C13.2264 7.1286 13.2039 7.1286 13.1814 7.1286C13.1589 7.1286 13.1363 7.1286 13.1138 7.1286C13.0913 7.1286 13.0687 7.1286 13.0462 7.1286C13.0236 7.1286 13.0011 7.1286 12.9785 7.1286C12.9559 7.1286 12.9334 7.1286 12.9108 7.1286C12.8882 7.1286 12.8656 7.1286 12.843 7.1286C12.8204 7.1286 12.7978 7.1286 12.7752 7.1286C12.7526 7.1286 12.7299 7.1286 12.7073 7.1286C12.6846 7.1286 12.662 7.1286 12.6393 7.1286C12.6167 7.1286 12.594 7.1286 12.5713 7.1286C12.5487 7.1286 12.526 7.1286 12.5033 7.1286C12.4806 7.1286 12.4579 7.1286 12.4352 7.1286C12.4125 7.1286 12.3897 7.1286 12.367 7.1286C12.3443 7.1286 12.3215 7.1286 12.2988 7.1286C12.276 7.1286 12.2532 7.1286 12.2305 7.1286C12.2077 7.1286 12.1849 7.1286 12.1621 7.1286C12.1393 7.1286 12.1165 7.1286 12.0937 7.1286C12.0709 7.1286 12.0481 7.1286 12.0252 7.1286C12.0024 7.1286 11.9796 7.1286 11.9567 7.1286C11.9339 7.1286 11.911 7.1286 11.8881 7.1286C11.8653 7.1286 11.8424 7.1286 11.8195 7.1286C11.7966 7.1286 11.7737 7.1286 11.7508 7.1286C11.7278 7.1286 11.7049 7.1286 11.682 7.1286C11.659 7.1286 11.6361 7.1286 11.6131 7.1286C11.5902 7.1286 11.5672 7.1286 11.5442 7.1286C11.5212 7.1286 11.4983 7.1286 11.4753 7.1286C11.4522 7.1286 11.4292 7.1286 11.4062 7.1286C11.3832 7.1286 11.3602 7.1286 11.3371 7.1286C11.3141 7.1286 11.291 7.1286 11.2679 7.1286C11.2449 7.1286 11.2218 7.1286 11.1987 7.1286C11.1756 7.1286 11.1525 7.1286 11.1294 7.1286C11.1063 7.1286 11.0832 7.1286 11.06 7.1286C11.0369 7.1286 11.0137 7.1286 10.9906 7.1286C10.9674 7.1286 10.9442 7.1286 10.9211 7.1286C10.8979 7.1286 10.8747 7.1286 10.8515 7.1286C10.8283 7.1286 10.8051 7.1286 10.7818 7.1286C10.7586 7.1286 10.7354 7.1286 10.7121 7.1286C10.6888 7.1286 10.6656 7.1286 10.6423 7.1286C10.619 7.1286 10.5957 7.1286 10.5724 7.1286C10.5491 7.1286 10.5258 7.1286 10.5025 7.1286C10.4792 7.1286 10.4558 7.1286 10.4325 7.1286C10.4091 7.1286 10.3858 7.1286 10.3624 7.1286C10.339 7.1286 10.3156 7.1286 10.2922 7.1286C10.2688 7.1286 10.2454 7.1286 10.222 7.1286C10.1986 7.1286 10.1751 7.1286 10.1517 7.1286C10.1282 7.1286 10.1048 7.1286 10.0813 7.1286C10.0578 7.1286 10.0343 7.1286 10.0108 7.1286C9.98732 7.1286 9.96381 7.1286 9.94028 7.1286C9.91675 7.1286 9.89321 7.1286 9.86966 7.1286C9.8461 7.1286 9.82254 7.1286 9.79896 7.1286C9.77538 7.1286 9.75179 7.1286 9.72818 7.1286C9.70457 7.1286 9.68095 7.1286 9.65732 7.1286C9.63369 7.1286 9.61004 7.1286 9.58638 7.1286C9.56272 7.1286 9.53905 7.1286 9.51536 7.1286C9.49168 7.1286 9.46798 7.1286 9.44426 7.1286C9.42055 7.1286 9.39682 7.1286 9.37308 7.1286C9.34934 7.1286 9.32559 7.1286 9.30182 7.1286C9.27805 7.1286 9.25427 7.1286 9.23047 7.1286C9.20667 7.1286 9.18286 7.1286 9.15904 7.1286C9.13522 7.1286 9.11138 7.1286 9.08753 7.1286C9.06367 7.1286 9.03981 7.1286 9.01593 7.1286C8.99205 7.1286 8.96815 7.1286 8.94424 7.1286C8.92033 7.1286 8.89641 7.1286 8.87247 7.1286C8.84854 7.1286 8.82458 7.1286 8.80062 7.1286C8.77665 7.1286 8.75267 7.1286 8.72867 7.1286C8.70468 7.1286 8.68067 7.1286 8.65664 7.1286C8.63262 7.1286 8.60858 7.1286 8.58453 7.1286C8.56047 7.1286 8.5364 7.1286 8.51232 7.1286C8.48824 7.1286 8.46414 7.1286 8.44002 7.1286C8.41591 7.1286 8.39178 7.1286 8.36764 7.1286C8.3435 7.1286 8.31934 7.1286 8.29516 7.1286C8.27099 7.1286 8.2468 7.1286 8.2226 7.1286C8.19839 7.1286 8.17418 7.1286 8.14994 7.1286C8.12571 7.1286 8.10146 7.1286 8.07719 7.1286C8.05293 7.1286 8.02865 7.1286 8.00435 7.1286C7.98005 7.1286 7.95574 7.1286 7.93142 7.1286C7.90709 7.1286 7.88275 7.1286 7.85839 7.1286C7.83403 7.1286 7.80966 7.1286 7.78527 7.1286C7.76088 7.1286 7.73647 7.1286 7.71205 7.1286C7.68763 7.1286 7.66319 7.1286 7.63874 7.1286C7.61428 7.1286 7.58982 7.1286 7.56533 7.1286C7.54085 7.1286 7.51634 7.1286 7.49183 7.1286C7.46731 7.1286 7.44278 7.1286 7.41823 7.1286C7.39368 7.1286 7.36911 7.1286 7.34453 7.1286C7.31995 7.1286 7.29535 7.1286 7.27073 7.1286C7.24612 7.1286 7.22149 7.1286 7.19684 7.1286C7.17219 7.1286 7.14753 7.1286 7.12284 7.1286C7.09816 7.1286 7.07347 7.1286 7.04875 7.1286C7.02404 7.1286 6.99931 7.1286 6.97456 7.1286C6.94981 7.1286 6.92504 7.1286 6.90026 7.1286C6.87548 7.1286 6.85068 7.1286 6.82587 7.1286C6.80105 7.1286 6.77622 7.1286 6.75137 7.1286C6.72652 7.1286 6.70165 7.1286 6.67677 7.1286C6.65189 7.1286 6.62698 7.1286 6.60207 7.1286C6.57715 7.1286 6.55221 7.1286 6.52726 7.1286C6.50231 7.1286 6.47734 7.1286 6.45235 7.1286C6.42736 7.1286 6.40236 7.1286 6.37733 7.1286C6.35231 7.1286 6.32727 7.1286 6.30221 7.1286C6.27715 7.1286 6.25208 7.1286 6.22699 7.1286C6.20189 7.1286 6.17678 7.1286 6.15165 7.1286C6.12652 7.1286 6.10138 7.1286 6.07621 7.1286C6.05105 7.1286 6.02587 7.1286 6.00067 7.1286C5.97547 7.1286 5.95025 7.1286 5.92501 7.1286C5.89977 7.1286 5.87452 7.1286 5.84925 7.1286C5.82397 7.1286 5.79868 7.1286 5.77337 7.1286C5.74806 7.1286 5.72274 7.1286 5.69739 7.1286C5.67204 7.1286 5.64668 7.1286 5.6213 7.1286C5.59591 7.1286 5.57051 7.1286 5.54509 7.1286C5.51967 7.1286 5.49423 7.1286 5.46878 7.1286C5.44332 7.1286 5.41784 7.1286 5.39235 7.1286C5.36686 7.1286 5.34134 7.1286 5.31581 7.1286C5.29028 7.1286 5.26473 7.1286 5.23916 7.1286C5.21359 7.1286 5.188 7.1286 5.16239 7.1286C5.13678 7.1286 5.11115 7.1286 5.08551 7.1286C5.05986 7.1286 5.0342 7.1286 5.00851 7.1286C4.98283 7.1286 4.95712 7.1286 4.9314 7.1286C4.90568 7.1286 4.87994 7.1286 4.85417 7.1286C4.82841 7.1286 4.80263 7.1286 4.77683 7.1286C4.75103 7.1286 4.72521 7.1286 4.69937 7.1286C4.67353 7.1286 4.64767 7.1286 4.62179 7.1286C4.59591 7.1286 4.57001 7.1286 4.5441 7.1286C4.51818 7.1286 4.49224 7.1286 4.46628 7.1286C4.44032 7.1286 4.41434 7.1286 4.38835 7.1286C4.36235 7.1286 4.33633 7.1286 4.31029 7.1286C4.28425 7.1286 4.2582 7.1286 4.23212 7.1286C4.20604 7.1286 4.17994 7.1286 4.15382 7.1286C4.1277 7.1286 4.10156 7.1286 4.07541 7.1286C4.04925 7.1286 4.02307 7.1286 3.99687 7.1286C3.97067 7.1286 3.94445 7.1286 3.9182 7.1286C3.89196 7.1286 3.8657 7.1286 3.83942 7.1286C3.81314 7.1286 3.78683 7.1286 3.76051 7.1286C3.73419 7.1286 3.70784 7.1286 3.68148 7.1286C3.65511 7.1286 3.62873 7.1286 3.60232 7.1286C3.57591 7.1286 3.54949 7.1286 3.52304 7.1286C3.49659 7.1286 3.47012 7.1286 3.44363 7.1286C3.41714 7.1286 3.39063 7.1286 3.36409 7.1286C3.33756 7.1286 3.31101 7.1286 3.28443 7.1286C3.25785 7.1286 3.23126 7.1286 3.20464 7.1286C3.17802 7.1286 3.15138 7.1286 3.12472 7.1286C3.09806 7.1286 3.07138 7.1286 3.04467 7.1286C3.01797 7.1286 2.99124 7.1286 2.9645 7.1286C2.93775 7.1286 2.91098 7.1286 2.88419 7.1286C2.8574 7.1286 2.83059 7.1286 2.80375 7.1286C2.77692 7.1286 2.75006 7.1286 2.72319 7.1286C2.69631 7.1286 2.66941 7.1286 2.64249 7.1286C2.61556 7.1286 2.58862 7.1286 2.56165 7.1286C2.53469 7.1286 2.5077 7.1286 2.48069 7.1286C2.45368 7.1286 2.42665 7.1286 2.39959 7.1286C2.37254 7.1286 2.34546 7.1286 2.31836 7.1286C2.29126 7.1286 2.26414 7.1286 2.23699 7.1286C2.20985 7.1286 2.18268 7.1286 2.15549 7.1286C2.1283 7.1286 2.10109 7.1286 2.07386 7.1286C2.04662 7.1286 2.01937 7.1286 1.99209 7.1286C1.9648 7.1286 1.9375 7.1286 1.91018 7.1286C1.88285 7.1286 1.8555 7.1286 1.82813 7.1286C1.80076 7.1286 1.77336 7.1286 1.74595 7.1286C1.71853 7.1286 1.69109 7.1286 1.66362 7.1286C1.63616 7.1286 1.60867 7.1286 1.58116 7.1286C1.55365 7.1286 1.52612 7.1286 1.49856 7.1286C1.47101 7.1286 1.44343 7.1286 1.41582 7.1286C1.38822 7.1286 1.36059 7.1286 1.33294 7.1286C1.30529 7.1286 1.27762 7.1286 1.24992 7.1286C1.22222 7.1286 1.1945 7.1286 1.16675 7.1286C1.13901 7.1286 1.11124 7.1286 1.08345 7.1286C1.05566 7.1286 1.02784 7.1286 1 7.1286V6.1286Z" fill="#4B4B4B"/>
</svg>
