<svg width="24" height="25" viewBox="0 0 24 25" fill="none" xmlns="http://www.w3.org/2000/svg">
<path d="M2.85714 0.859863C1.28599 0.859863 0 2.14907 0 3.72414V22.0555C0 23.6306 1.28599 24.9198 2.85714 24.9198H12.4754C12.5371 24.93 12.6001 24.93 12.6618 24.9198H15.904C15.9657 24.93 16.0287 24.93 16.0904 24.9198H21.1428C22.714 24.9198 23.9999 23.6306 23.9999 22.0555V3.72414C23.9999 2.14907 22.714 0.859863 21.1428 0.859863H2.85714ZM2.85714 2.00558H21.1428C22.0962 2.00558 22.8571 2.76834 22.8571 3.72414V22.0555C22.8571 23.0113 22.0962 23.7741 21.1428 23.7741H16.5714V15.7541H18.7544L19.5546 11.7441H16.5714V10.5984C16.5714 10.2791 16.6017 10.2541 16.7087 10.1844C16.8156 10.1148 17.1461 10.0256 17.7142 10.0256H19.4285V6.79989L19.1026 6.64437C19.1026 6.64437 17.79 6.01557 16 6.01557C14.7142 6.01557 13.658 6.52911 12.9821 7.3761C12.3062 8.2231 12 9.35723 12 10.5984V11.7441H10.2857V15.7541H12V23.7741H2.85714C1.90372 23.7741 1.14285 23.0113 1.14285 22.0555V3.72414C1.14285 2.76834 1.90372 2.00558 2.85714 2.00558ZM16 7.16128C17.188 7.16128 17.9356 7.42391 18.2857 7.56295V8.87985H17.7142C17.0566 8.87985 16.5296 8.93439 16.0859 9.22334C15.6421 9.5123 15.4285 10.0608 15.4285 10.5984V12.8898H18.1596L17.8169 14.6084H15.4285V23.7741H13.1428V14.6084H11.4285V12.8898H13.1428V10.5984C13.1428 9.54818 13.408 8.67732 13.875 8.09217C14.3419 7.50703 15 7.16128 16 7.16128Z" fill="black"/>
</svg>
