<svg width="24" height="25" viewBox="0 0 24 25" fill="none" xmlns="http://www.w3.org/2000/svg">
<g filter="url(#filter0_i_159_19)">
<path d="M23.2453 12.8858C23.2453 14.5725 23.2125 16.264 23.2547 17.9506C23.325 20.9361 21.5109 23.2431 19.2 24.2706C18.2719 24.6826 17.2969 24.9007 16.2891 24.9007C13.1344 24.9055 9.975 24.9491 6.82031 24.8861C4.44375 24.8376 2.48906 23.8102 1.0875 21.7843C0.351562 20.718 0 19.5063 0 18.1929C0 14.7179 0 11.2477 0 7.77265C0 4.93737 1.33594 2.95509 3.70781 1.66589C4.73906 1.10853 5.85937 0.87104 7.02656 0.866194C10.0875 0.866194 13.1531 0.846807 16.2141 0.875887C18.5906 0.895273 20.5734 1.83552 22.0359 3.81295C22.8516 4.91798 23.2453 6.1878 23.2453 7.58363C23.2453 9.3478 23.2453 11.1168 23.2453 12.8858ZM1.72969 12.8858C1.72969 14.6646 1.72969 16.4384 1.72969 18.2171C1.72969 19.012 1.90781 19.7584 2.30625 20.4321C3.35156 22.2011 4.93125 23.0638 6.89062 23.0977C10.0359 23.1462 13.1859 23.1171 16.3359 23.1074C17.1094 23.1074 17.8594 22.9426 18.5578 22.5985C20.4609 21.6583 21.525 20.1606 21.5156 17.9118C21.4969 14.4707 21.5109 11.0296 21.5109 7.58848C21.5109 6.6143 21.2437 5.72252 20.6859 4.93737C19.6078 3.43006 18.1172 2.68853 16.3359 2.66914C13.1953 2.63037 10.0547 2.6546 6.91406 2.65945C6.24375 2.65945 5.59687 2.8 4.96875 3.04233C3.24375 3.70632 1.64062 5.3881 1.71562 7.86473C1.77187 9.54167 1.72969 11.2138 1.72969 12.8858Z" fill="#E65DC8"/>
<path d="M11.6485 18.0231C8.62506 18.0231 6.18756 15.5319 6.18287 12.43C6.17818 9.37662 8.63444 6.87574 11.6391 6.87574C14.6532 6.87089 17.1001 9.36693 17.1048 12.4446C17.1048 15.5173 14.6626 18.0182 11.6485 18.0231ZM11.6485 16.2298C13.7063 16.2298 15.3751 14.5286 15.3704 12.4349C15.3657 10.3605 13.6969 8.66416 11.6485 8.66416C9.59069 8.66416 7.91256 10.3556 7.91256 12.4446C7.91725 14.5383 9.59069 16.2347 11.6485 16.2298Z" fill="#BE52A6"/>
<path d="M17.7375 5.17944C18.3703 5.17944 18.8859 5.73682 18.8859 6.42021C18.8812 7.10359 18.3609 7.65612 17.7281 7.65127C17.1047 7.64643 16.5938 7.0939 16.5938 6.42505C16.5891 5.74166 17.1047 5.17944 17.7375 5.17944Z" fill="#E65DC8"/>
</g>
<defs>
<filter id="filter0_i_159_19" x="0" y="0.859863" width="23.2566" height="28.0601" filterUnits="userSpaceOnUse" color-interpolation-filters="sRGB">
<feFlood flood-opacity="0" result="BackgroundImageFix"/>
<feBlend mode="normal" in="SourceGraphic" in2="BackgroundImageFix" result="shape"/>
<feColorMatrix in="SourceAlpha" type="matrix" values="0 0 0 0 0 0 0 0 0 0 0 0 0 0 0 0 0 0 127 0" result="hardAlpha"/>
<feOffset dy="4"/>
<feGaussianBlur stdDeviation="2"/>
<feComposite in2="hardAlpha" operator="arithmetic" k2="-1" k3="1"/>
<feColorMatrix type="matrix" values="0 0 0 0 0 0 0 0 0 0 0 0 0 0 0 0 0 0 0.25 0"/>
<feBlend mode="normal" in2="shape" result="effect1_innerShadow_159_19"/>
</filter>
</defs>
</svg>
