<svg width="24" height="24" viewBox="0 0 24 24" fill="none" xmlns="http://www.w3.org/2000/svg">
<g filter="url(#filter0_i_1_360)">
<path d="M23.2453 11.996C23.2453 13.6784 23.2125 15.3657 23.2547 17.0481C23.325 20.0262 21.5109 22.3274 19.2 23.3523C18.2719 23.7633 17.2969 23.9808 16.2891 23.9808C13.1344 23.9857 9.975 24.0292 6.82031 23.9663C4.44375 23.918 2.48906 22.8931 1.0875 20.8722C0.351562 19.8086 0 18.6 0 17.2898C0 13.8235 0 10.3619 0 6.89555C0 4.06734 1.33594 2.09 3.70781 0.804015C4.73906 0.248042 5.85937 0.0111491 7.02656 0.00631452C10.0875 0.00631452 13.1531 -0.0130237 16.2141 0.0159836C18.5906 0.0353218 20.5734 0.973224 22.0359 2.94572C22.8516 4.048 23.2453 5.31465 23.2453 6.707C23.2453 8.46677 23.2453 10.2314 23.2453 11.996ZM1.72969 11.996C1.72969 13.7703 1.72969 15.5397 1.72969 17.314C1.72969 18.1069 1.90781 18.8514 2.30625 19.5234C3.35156 21.288 4.93125 22.1485 6.89062 22.1824C10.0359 22.2307 13.1859 22.2017 16.3359 22.1921C17.1094 22.1921 17.8594 22.0277 18.5578 21.6844C20.4609 20.7465 21.525 19.2527 21.5156 17.0094C21.4969 13.5769 21.5109 10.1444 21.5109 6.71183C21.5109 5.74009 21.2437 4.85053 20.6859 4.06734C19.6078 2.56379 18.1172 1.8241 16.3359 1.80477C13.1953 1.76609 10.0547 1.79026 6.91406 1.7951C6.24375 1.7951 5.59688 1.9353 4.96875 2.17703C3.24375 2.83936 1.64062 4.51695 1.71562 6.9874C1.77187 8.66016 1.72969 10.3281 1.72969 11.996Z" fill="#E65DC8"/>
<path d="M11.6485 17.1203C8.62506 17.1203 6.18756 14.6354 6.18287 11.5413C6.17818 8.49549 8.63443 6.00086 11.6391 6.00086C14.6532 5.99603 17.1001 8.48582 17.1048 11.5558C17.1048 14.6209 14.6626 17.1155 11.6485 17.1203ZM11.6485 15.3315C13.7063 15.3315 15.3751 13.6346 15.3704 11.5461C15.3657 9.4769 13.6969 7.78481 11.6485 7.78481C9.59069 7.78481 7.91256 9.47207 7.91256 11.5558C7.91725 13.6443 9.59069 15.3364 11.6485 15.3315Z" fill="#BE52A6"/>
<path d="M17.7375 4.30884C18.3703 4.30884 18.886 4.86481 18.886 5.54648C18.8813 6.22815 18.361 6.77929 17.7282 6.77445C17.1047 6.76962 16.5938 6.21848 16.5938 5.55131C16.5891 4.86964 17.1047 4.30884 17.7375 4.30884Z" fill="#E65DC8"/>
</g>
<defs>
<filter id="filter0_i_1_360" x="0" y="0" width="23.2566" height="28" filterUnits="userSpaceOnUse" color-interpolation-filters="sRGB">
<feFlood flood-opacity="0" result="BackgroundImageFix"/>
<feBlend mode="normal" in="SourceGraphic" in2="BackgroundImageFix" result="shape"/>
<feColorMatrix in="SourceAlpha" type="matrix" values="0 0 0 0 0 0 0 0 0 0 0 0 0 0 0 0 0 0 127 0" result="hardAlpha"/>
<feOffset dy="4"/>
<feGaussianBlur stdDeviation="2"/>
<feComposite in2="hardAlpha" operator="arithmetic" k2="-1" k3="1"/>
<feColorMatrix type="matrix" values="0 0 0 0 0 0 0 0 0 0 0 0 0 0 0 0 0 0 0.25 0"/>
<feBlend mode="normal" in2="shape" result="effect1_innerShadow_1_360"/>
</filter>
</defs>
</svg>
