<svg width="24" height="25" viewBox="0 0 24 25" fill="none" xmlns="http://www.w3.org/2000/svg">
<path d="M2.8 0.859863C1.26027 0.859863 0 2.12328 0 3.66686V21.6317C0 23.1752 1.26027 24.4387 2.8 24.4387H20.72C22.2597 24.4387 23.52 23.1752 23.52 21.6317V3.66686C23.52 2.12328 22.2597 0.859863 20.72 0.859863H2.8ZM2.8 1.98266H20.72C21.6544 1.98266 22.4 2.73018 22.4 3.66686V21.6317C22.4 22.5683 21.6544 23.3159 20.72 23.3159H2.8C1.86565 23.3159 1.12 22.5683 1.12 21.6317V3.66686C1.12 2.73018 1.86565 1.98266 2.8 1.98266ZM10.862 7.59228C10.2698 7.59091 9.7418 7.62409 9.26954 7.85653L9.26845 7.85763C9.03821 7.97134 8.87594 8.11578 8.74673 8.28745C8.68212 8.37328 8.61593 8.45033 8.58048 8.646C8.56275 8.74383 8.55279 8.90237 8.65485 9.07363C8.75691 9.24488 8.96214 9.34226 9.09344 9.35981C9.18466 9.37198 9.39055 9.45983 9.40954 9.4859L9.41063 9.4881C9.41063 9.4881 9.49048 9.69694 9.51345 9.88283C9.53642 10.0687 9.53532 10.2195 9.53532 10.2195C9.53509 10.2344 9.53545 10.2494 9.53641 10.2644C9.53641 10.2644 9.56886 10.7515 9.54735 11.2545C9.53878 11.455 9.51292 11.6334 9.4861 11.7929C9.28668 11.5722 8.99283 11.1725 8.56844 10.4355C8.09766 9.61739 7.72298 8.88393 7.72298 8.88393C7.7033 8.82003 7.63371 8.62123 7.36204 8.42122C7.06505 8.20178 6.77797 8.16903 6.77797 8.16903C6.74196 8.16179 6.70533 8.15811 6.6686 8.15806L4.46141 8.15916C4.46141 8.15916 4.32907 8.15148 4.17047 8.17341C4.01187 8.19534 3.77305 8.21319 3.54266 8.48701L3.54157 8.4881C3.33566 8.73475 3.34812 9.00736 3.37313 9.16135C3.39814 9.31533 3.45407 9.43218 3.45407 9.43218C3.45514 9.43438 3.45624 9.43657 3.45735 9.43876C3.45735 9.43876 5.26273 13.2441 7.30298 15.4848C8.78456 17.1117 10.3053 17.1394 11.5599 17.1394H12.4961C12.7351 17.1394 12.9513 17.13 13.1906 16.9902C13.4299 16.8505 13.5909 16.5102 13.5909 16.2742C13.5909 16.0269 13.6278 15.8325 13.673 15.7326C13.7048 15.6623 13.7299 15.637 13.7692 15.6163C13.7775 15.6216 13.7722 15.6186 13.7955 15.635C13.8887 15.7007 14.0426 15.8505 14.21 16.0374C14.5448 16.4111 14.9247 16.9238 15.435 17.2753C15.8006 17.5274 16.1459 17.6393 16.4085 17.6799C16.5729 17.7054 16.7007 17.7005 16.7913 17.6931L18.8825 17.7019C18.8949 17.7019 18.9073 17.7015 18.9197 17.7008C18.9197 17.7008 19.28 17.705 19.6547 17.4804C19.842 17.3681 20.063 17.1551 20.1349 16.8444C20.2067 16.5337 20.1164 16.2118 19.9402 15.9179V15.9168C19.9708 15.9676 19.9125 15.8631 19.8527 15.7655C19.7929 15.6678 19.7061 15.5362 19.5814 15.3729C19.3321 15.0464 18.9329 14.5894 18.2875 13.987H18.2864C17.9586 13.6812 17.7373 13.4648 17.6466 13.3444C17.5559 13.2241 17.5856 13.2873 17.5919 13.2567C17.6045 13.1955 17.9978 12.6266 18.7983 11.555C19.2849 10.9027 19.6264 10.413 19.8516 10.0056C20.0768 9.59831 20.2392 9.24554 20.1261 8.81376L20.125 8.81157C20.0748 8.62203 19.9377 8.44732 19.7969 8.35214C19.6561 8.25696 19.5226 8.21973 19.4031 8.19644C19.1643 8.14985 18.9558 8.15806 18.7622 8.15806C18.3563 8.15806 16.5556 8.17232 16.4074 8.17232C16.2322 8.17232 15.9426 8.25217 15.8145 8.32911C15.4925 8.5234 15.4 8.77867 15.4 8.77867C15.3942 8.78945 15.3887 8.80043 15.3836 8.81157C15.3836 8.81157 15.0121 9.63734 14.5338 10.453C14.0492 11.2804 13.6911 11.675 13.475 11.8576C13.4691 11.8251 13.4701 11.8515 13.4663 11.8061C13.4469 11.575 13.4684 11.2558 13.4684 10.9442C13.4684 10.1052 13.5394 9.518 13.5013 8.99907C13.4822 8.7396 13.4343 8.47204 13.2639 8.22604C13.0936 7.98004 12.8101 7.82023 12.53 7.75236C12.3619 7.71172 12.1703 7.606 11.4767 7.59886H11.4756C11.2635 7.59673 11.0594 7.59273 10.862 7.59228ZM11.4647 8.72165C12.0784 8.72798 11.9256 8.76185 12.2664 8.84446C12.3721 8.87007 12.3465 8.86992 12.3441 8.86639C12.3416 8.86285 12.3727 8.92074 12.3845 9.0824C12.4083 9.40571 12.3484 10.0485 12.3484 10.9442C12.3484 11.1885 12.319 11.537 12.3495 11.9004C12.38 12.2637 12.4699 12.73 12.903 13.0111C13.1083 13.1445 13.3466 13.1529 13.5505 13.1021C13.7543 13.0513 13.9393 12.9455 14.1334 12.7896C14.5218 12.4779 14.955 11.9517 15.4995 11.0221C16.0085 10.1543 16.3787 9.328 16.391 9.3006C16.3934 9.29867 16.3958 9.29734 16.3986 9.29512C16.4056 9.29519 16.3984 9.29512 16.4074 9.29512C16.6164 9.29512 18.3841 9.28086 18.7622 9.28086C18.8505 9.28086 18.8826 9.2862 18.9525 9.28854C18.9335 9.35212 18.9546 9.31157 18.8716 9.46178C18.6974 9.77684 18.3764 10.245 17.9014 10.8817C17.121 11.9266 16.6373 12.336 16.4949 13.0297C16.4236 13.3766 16.5571 13.7611 16.753 14.021C16.9489 14.2808 17.1961 14.5034 17.5241 14.8093C18.1314 15.3763 18.4877 15.7882 18.6922 16.056C18.7944 16.19 18.8589 16.2867 18.8989 16.3521C18.939 16.4175 18.9291 16.4106 18.981 16.4968C19.0151 16.5542 19.0025 16.5192 19.0083 16.5363C18.9412 16.5553 18.8598 16.5781 18.8552 16.5791L16.7956 16.5703C16.7585 16.5703 16.7215 16.5739 16.6852 16.5813C16.6852 16.5813 16.6903 16.5873 16.5802 16.5703C16.47 16.5533 16.2948 16.5055 16.0694 16.3499C15.7974 16.1625 15.4165 15.704 15.0435 15.2874C14.8569 15.0791 14.6709 14.8791 14.4397 14.7161C14.2085 14.5532 13.8626 14.3999 13.4892 14.5177C13.1016 14.6397 12.7998 14.943 12.6525 15.2688C12.5428 15.5113 12.534 15.7646 12.5169 16.0166C12.4983 16.018 12.5197 16.0166 12.4961 16.0166H11.5599C10.2877 16.0166 9.38443 16.1048 8.12985 14.7271C6.44229 12.8737 4.89615 9.79006 4.64407 9.28196L6.58657 9.28086C6.62071 9.294 6.69378 9.3215 6.69813 9.32472L6.70032 9.32691C6.62931 9.27488 6.7036 9.34775 6.7036 9.34775C6.71046 9.36456 6.71812 9.38102 6.72657 9.39709C6.72657 9.39709 7.11147 10.1509 7.59829 10.9969C8.07581 11.8262 8.42378 12.3442 8.75985 12.6865C8.92789 12.8577 9.09751 12.995 9.32423 13.0725C9.55094 13.15 9.84369 13.1216 10.0406 13.0133C10.443 12.7925 10.497 12.4669 10.5624 12.1822C10.6278 11.8971 10.6538 11.5933 10.6663 11.3028C10.6904 10.7388 10.6563 10.2507 10.6542 10.2205C10.6544 10.21 10.6569 10.0064 10.6247 9.74577C10.5917 9.47885 10.5549 9.1525 10.3141 8.82363L10.313 8.82253C10.3113 8.82023 10.3092 8.82039 10.3075 8.81815C10.626 8.77235 10.8985 8.71598 11.4647 8.72165ZM16.4052 9.27209L16.3975 9.28963H16.3953C16.3977 9.28511 16.4052 9.27209 16.4052 9.27209Z" fill="black"/>
</svg>
