<svg width="24" height="24" viewBox="0 0 24 24" fill="none" xmlns="http://www.w3.org/2000/svg">
<path d="M2.81583 0C1.2674 0 0 1.26027 0 2.8V20.72C0 22.2597 1.2674 23.52 2.81583 23.52H20.8371C22.3856 23.52 23.653 22.2597 23.653 20.72V2.8C23.653 1.26027 22.3856 0 20.8371 0H2.81583ZM2.81583 1.12H20.8371C21.7768 1.12 22.5266 1.86565 22.5266 2.8V20.72C22.5266 21.6544 21.7768 22.4 20.8371 22.4H2.81583C1.8762 22.4 1.12633 21.6544 1.12633 20.72V2.8C1.12633 1.86565 1.8762 1.12 2.81583 1.12ZM10.9234 6.71563C10.3279 6.71427 9.79686 6.74737 9.32193 6.97922C9.32156 6.97959 9.3212 6.97995 9.32083 6.98032C9.08929 7.09375 8.9261 7.23783 8.79616 7.40907C8.73119 7.49469 8.66463 7.57154 8.62897 7.76673C8.61114 7.86432 8.60113 8.02246 8.70377 8.19329C8.80641 8.36411 9.01279 8.46125 9.14484 8.47876C9.23657 8.4909 9.44362 8.57853 9.46272 8.60454C9.46309 8.60527 9.46345 8.606 9.46382 8.60673C9.46396 8.60691 9.54412 8.81505 9.56721 9.00048C9.59032 9.1859 9.58921 9.33626 9.58921 9.33626C9.58898 9.35121 9.58934 9.36617 9.59031 9.3811C9.59031 9.3811 9.62294 9.86693 9.60131 10.3688C9.5927 10.5688 9.56668 10.7467 9.53972 10.9058C9.33917 10.6856 9.04366 10.2869 8.61687 9.55173C8.14342 8.7357 7.76662 8.00407 7.76662 8.00407C7.74684 7.94033 7.67685 7.74202 7.40365 7.54251C7.10498 7.32362 6.81628 7.29094 6.81628 7.29094C6.78007 7.28372 6.74323 7.28006 6.70629 7.28001L4.48663 7.2811C4.48663 7.2811 4.35354 7.27345 4.19404 7.29532C4.03455 7.31719 3.79438 7.33499 3.56268 7.60813C3.56231 7.6085 3.56195 7.60886 3.56158 7.60923C3.35451 7.85525 3.36704 8.12718 3.39219 8.28079C3.41734 8.43439 3.47359 8.55095 3.47359 8.55095C3.47467 8.55314 3.47577 8.55533 3.47689 8.55751C3.47689 8.55751 5.29247 12.3533 7.34425 14.5885C8.83421 16.2113 10.3635 16.2389 11.6252 16.2389H12.5667C12.8071 16.2389 13.0245 16.2296 13.2652 16.0902C13.5058 15.9508 13.6678 15.6114 13.6678 15.376C13.6678 15.1293 13.7048 14.9353 13.7503 14.8356C13.7822 14.7655 13.8075 14.7403 13.8471 14.7197C13.8554 14.725 13.85 14.7219 13.8735 14.7383C13.9672 14.8039 14.122 14.9533 14.2903 15.1397C14.627 15.5125 15.0091 16.0239 15.5223 16.3745C15.8899 16.626 16.2372 16.7376 16.5012 16.7781C16.6666 16.8035 16.7951 16.7986 16.8862 16.7913L18.9892 16.8C19.0017 16.8001 19.0142 16.7997 19.0266 16.7989C19.0266 16.7989 19.389 16.8031 19.7658 16.5791C19.9542 16.467 20.1764 16.2546 20.2487 15.9447C20.3209 15.6348 20.2301 15.3136 20.0529 15.0205C20.0529 15.0201 20.0529 15.0198 20.0529 15.0194C20.0837 15.0701 20.025 14.9659 19.9649 14.8685C19.9047 14.771 19.8174 14.6398 19.6921 14.4769C19.4414 14.1512 19.0399 13.6953 18.3909 13.0944C18.3905 13.0944 18.3901 13.0944 18.3898 13.0944C18.0601 12.7894 17.8375 12.5735 17.7463 12.4534C17.6551 12.3334 17.685 12.3965 17.6913 12.3659C17.7039 12.3049 18.0996 11.7374 18.9045 10.6684C19.3939 10.0178 19.7373 9.52929 19.9638 9.12298C20.1903 8.71666 20.3536 8.36478 20.2399 7.93407C20.2395 7.93334 20.2391 7.93261 20.2388 7.93188C20.1883 7.74281 20.0504 7.56854 19.9088 7.4736C19.7672 7.37866 19.6329 7.34152 19.5128 7.31829C19.2726 7.27181 19.0629 7.28001 18.8682 7.28001C18.4601 7.28001 16.6491 7.29423 16.5001 7.29423C16.324 7.29423 16.0327 7.37388 15.9039 7.45063C15.58 7.64444 15.4871 7.89907 15.4871 7.89907C15.4812 7.90982 15.4757 7.92077 15.4706 7.93188C15.4706 7.93188 15.097 8.7556 14.6159 9.56923C14.1286 10.3945 13.7685 10.7881 13.5512 10.9703C13.5452 10.9379 13.5462 10.9642 13.5424 10.9189C13.5229 10.6885 13.5446 10.37 13.5446 10.0592C13.5446 9.2223 13.6159 8.63655 13.5776 8.11891C13.5584 7.8601 13.5102 7.5932 13.3389 7.34782C13.1676 7.10243 12.8825 6.94301 12.6008 6.87532C12.4318 6.83477 12.2391 6.72932 11.5416 6.72219C11.5412 6.72219 11.5409 6.72219 11.5405 6.72219C11.3272 6.72007 11.1219 6.71608 10.9234 6.71563ZM11.5295 7.84219C12.1467 7.8485 11.993 7.88228 12.3357 7.96469C12.442 7.99024 12.4163 7.99009 12.4138 7.98657C12.4114 7.98304 12.4426 8.04078 12.4545 8.20204C12.4784 8.52454 12.4182 9.16575 12.4182 10.0592C12.4182 10.3029 12.3887 10.6505 12.4193 11.013C12.45 11.3754 12.5404 11.8405 12.9759 12.1209C13.1824 12.254 13.4221 12.2624 13.6271 12.2117C13.8321 12.161 14.018 12.0555 14.2133 11.9C14.6039 11.589 15.0396 11.0642 15.5871 10.1369C16.099 9.27129 16.4712 8.44703 16.4836 8.41969C16.486 8.41777 16.4885 8.41644 16.4913 8.41423C16.4983 8.4143 16.491 8.41423 16.5001 8.41423C16.7103 8.41423 18.488 8.40001 18.8682 8.40001C18.957 8.40001 18.9893 8.40533 19.0596 8.40766C19.0405 8.47109 19.0618 8.43063 18.9782 8.58048C18.8031 8.89474 18.4802 9.36178 18.0026 9.99688C17.2178 11.0391 16.7313 11.4475 16.5881 12.1395C16.5165 12.4856 16.6507 12.8691 16.8477 13.1283C17.0447 13.3875 17.2933 13.6095 17.6231 13.9147C18.2339 14.4802 18.5922 14.8911 18.7978 15.1583C18.9007 15.2919 18.9655 15.3884 19.0057 15.4536C19.046 15.5189 19.0361 15.512 19.0882 15.598C19.1226 15.6552 19.1099 15.6203 19.1157 15.6374C19.0482 15.6563 18.9664 15.6791 18.9617 15.68L16.8906 15.6713C16.8533 15.6712 16.816 15.6749 16.7795 15.6822C16.7795 15.6822 16.7847 15.6883 16.6739 15.6713C16.5631 15.6543 16.3869 15.6066 16.1602 15.4514C15.8866 15.2645 15.5037 14.8071 15.1285 14.3916C14.9409 14.1838 14.7538 13.9843 14.5213 13.8217C14.2888 13.6592 13.941 13.5063 13.5655 13.6238C13.1756 13.7455 12.8722 14.048 12.724 14.373C12.6137 14.6149 12.6048 14.8676 12.5876 15.1189C12.5689 15.1203 12.5904 15.1189 12.5667 15.1189H11.6252C10.3459 15.1189 9.43747 15.2069 8.1758 13.8327C6.4787 11.9839 4.92382 8.90793 4.67031 8.4011L6.62379 8.40001C6.65813 8.41311 6.73162 8.44055 6.73599 8.44376C6.73672 8.44449 6.73745 8.44522 6.73819 8.44594C6.66678 8.39404 6.74149 8.46673 6.74149 8.46673C6.74838 8.48349 6.75609 8.49992 6.76459 8.51594C6.76459 8.51594 7.15167 9.26792 7.64123 10.1117C8.12145 10.939 8.47139 11.4557 8.80936 11.7972C8.97835 11.9679 9.14893 12.1049 9.37693 12.1822C9.60492 12.2595 9.89933 12.2312 10.0974 12.1231C10.502 11.9029 10.5563 11.5781 10.6221 11.2941C10.6879 11.0097 10.7141 10.7067 10.7265 10.4169C10.7508 9.85431 10.7165 9.36742 10.7144 9.33735C10.7146 9.32681 10.7171 9.12377 10.6847 8.86376C10.6516 8.59751 10.6146 8.27197 10.3724 7.94391L10.3713 7.94282C10.3696 7.94052 10.3675 7.94068 10.3658 7.93844C10.6861 7.89277 10.9601 7.83654 11.5295 7.84219ZM16.4979 8.39126L16.4902 8.40876C16.489 8.40944 16.4894 8.40795 16.488 8.40876C16.4904 8.40424 16.4979 8.39126 16.4979 8.39126Z" fill="#BE52A6"/>
</svg>
