<svg width="909" height="154" viewBox="0 0 909 154" fill="none" xmlns="http://www.w3.org/2000/svg">
<path opacity="0.4" d="M46 153.2C39.0667 153.2 32.8667 152.6 27.4 151.4C21.9333 150.2 15.9333 148.6 9.4 146.6C5.4 145.133 2.4 144.333 0.400001 144.2L2 108H14.8L18.2 134C20.4667 136.133 24.1333 138.067 29.2 139.8C34.4 141.4 40.0667 142.2 46.2 142.2C56.3333 142.2 64 139.933 69.2 135.4C74.5333 130.867 77.2 124.6 77.2 116.6C77.2 111.4 75.7333 106.933 72.8 103.2C70 99.4667 66.2 96.2667 61.4 93.6C56.7333 90.9333 50.2667 87.8 42 84.2C34.5333 80.8667 28 77.4667 22.4 74C16.9333 70.5333 12.1333 65.9333 8 60.2C4 54.3333 2 47.3333 2 39.2C2 31.8667 3.93333 25.3333 7.8 19.6C11.8 13.7333 17.4667 9.13333 24.8 5.8C32.2667 2.46666 40.9333 0.799991 50.8 0.799991C56.9333 0.799991 62.3333 1.26666 67 2.2C71.8 3.13333 77.2 4.39999 83.2 6C85.8667 6.93332 88.1333 7.53332 90 7.8L88.8 41.4H76.6L72.6 16.8C71.2667 15.4667 68.4667 14.2 64.2 13C60.0667 11.8 55.5333 11.2 50.6 11.2C41.4 11.2 34.4 13.1333 29.6 17C24.9333 20.8667 22.6 26.4667 22.6 33.8C22.6 39.1333 24 43.6 26.8 47.2C29.7333 50.8 33.3333 53.8667 37.6 56.4C41.8667 58.9333 48.6667 62.4 58 66.8C66.6667 70.9333 73.7333 74.6667 79.2 78C84.6667 81.3333 89.3333 85.7333 93.2 91.2C97.2 96.5333 99.2 102.933 99.2 110.4C99.2 117.467 97.2 124.267 93.2 130.8C89.3333 137.333 83.3333 142.733 75.2 147C67.2 151.133 57.4667 153.2 46 153.2ZM172.95 14.8L157.15 12.4V2.39999H211.55V12.4L194.35 14.8V68.6H264.75V14.8L248.55 12.4V2.39999H302.15V12.4L286.35 14.8V139.2L302.15 141.2V151H248.35V141.2L264.75 139.2V81H194.35V139.2L211.75 141.2V151H156.75V141.2L172.95 139.2V14.8ZM410.375 1.2H432.375L480.975 139.2L493.375 141.2V151H440.575V141.2L457.175 139.2L447.775 109.6H389.375L379.975 139.2L397.175 141.2V151H349.775V141.2L362.175 139.2L410.375 1.2ZM422.975 33.2L417.975 15.6L413.175 33.6L392.975 97.8H443.975L422.975 33.2ZM540.052 141.2L556.652 139.2V14.8L541.052 12.2V2.39999H567.252C570.985 2.39999 576.052 2.13333 582.452 1.59999C589.118 1.06666 594.318 0.799991 598.052 0.799991C617.652 0.799991 631.585 3.99999 639.852 10.4C648.252 16.6667 652.452 26.6 652.452 40.2C652.452 49.6667 649.785 58.3333 644.452 66.2C639.252 74.0667 632.052 79.4 622.852 82.2C627.118 84.4667 631.052 88.4 634.652 94C638.385 99.4667 642.918 107.133 648.252 117C652.385 124.467 655.518 129.933 657.652 133.4C659.918 136.867 662.052 138.8 664.052 139.2L671.852 141.2V151H644.252C642.118 151 639.718 148.733 637.052 144.2C634.385 139.533 630.852 132.4 626.452 122.8C621.652 112.267 617.452 103.933 613.852 97.8C610.385 91.5333 606.918 87.5333 603.452 85.8C589.185 85.8 580.718 85.7333 578.052 85.6V139.2L597.852 141.2V151H540.052V141.2ZM601.852 75C610.385 75 617.118 72.2 622.052 66.6C626.985 61 629.452 52.6667 629.452 41.6C629.452 31.8667 626.918 24.4667 621.852 19.4C616.918 14.2 608.318 11.6 596.052 11.6C591.785 11.6 587.518 11.8667 583.252 12.4C580.585 12.6667 578.852 12.8 578.052 12.8V74.8C580.052 74.9333 584.185 75 590.452 75H601.852ZM744.472 14.8L722.672 12.4V2.39999H775.672L803.872 92.4L810.472 117.8L816.472 92.4L844.472 2.39999H897.072V12.4L875.072 14.8L891.072 139L908.472 141.2V151H850.872V141.2L869.072 139.2L860.072 49.4L855.872 10.8L847.472 39.6L814.072 144.2H801.072L768.672 48.4L756.872 10.6L753.272 49.4L745.272 139.2L765.072 141.2V151H712.872V141.2L729.872 139.2L744.472 14.8Z" fill="white"/>
</svg>
